<?xml version="1.0" encoding="UTF-8" standalone="no"?>
<!-- Created with Inkscape (http://www.inkscape.org/) -->

<svg
   xmlns:dc="http://purl.org/dc/elements/1.1/"
   xmlns:cc="http://creativecommons.org/ns#"
   xmlns:rdf="http://www.w3.org/1999/02/22-rdf-syntax-ns#"
   xmlns:svg="http://www.w3.org/2000/svg"
   xmlns="http://www.w3.org/2000/svg"
   xmlns:sodipodi="http://sodipodi.sourceforge.net/DTD/sodipodi-0.dtd"
   xmlns:inkscape="http://www.inkscape.org/namespaces/inkscape"
   width="210mm"
   height="250mm"
   viewBox="0 0 744.09449 885.82677"
   id="svg2"
   version="1.1"
   inkscape:version="0.91 r"
   sodipodi:docname="ti84.svg">
  <defs
     id="defs4">
    <marker
       inkscape:isstock="true"
       style="overflow:visible"
       id="marker7696"
       refX="0"
       refY="0"
       orient="auto"
       inkscape:stockid="Arrow1Lend">
      <path
         transform="matrix(-0.8,0,0,-0.8,-10,0)"
         style="fill:#000000;fill-opacity:1;fill-rule:evenodd;stroke:#000000;stroke-width:1pt;stroke-opacity:1"
         d="M 0,0 5,-5 -12.5,0 5,5 0,0 Z"
         id="path7698"
         inkscape:connector-curvature="0" />
    </marker>
    <marker
       inkscape:stockid="Arrow1Mstart"
       orient="auto"
       refY="0"
       refX="0"
       id="marker5862"
       style="overflow:visible"
       inkscape:isstock="true">
      <path
         id="path5864"
         d="M 0,0 5,-5 -12.5,0 5,5 0,0 Z"
         style="fill:#000000;fill-opacity:1;fill-rule:evenodd;stroke:#000000;stroke-width:1pt;stroke-opacity:1"
         transform="matrix(0.4,0,0,0.4,4,0)"
         inkscape:connector-curvature="0" />
    </marker>
    <marker
       inkscape:stockid="Arrow1Lstart"
       orient="auto"
       refY="0"
       refX="0"
       id="Arrow1Lstart"
       style="overflow:visible"
       inkscape:isstock="true">
      <path
         id="path5328"
         d="M 0,0 5,-5 -12.5,0 5,5 0,0 Z"
         style="fill:#000000;fill-opacity:1;fill-rule:evenodd;stroke:#000000;stroke-width:1pt;stroke-opacity:1"
         transform="matrix(0.8,0,0,0.8,10,0)"
         inkscape:connector-curvature="0" />
    </marker>
    <marker
       inkscape:stockid="Arrow1Lend"
       orient="auto"
       refY="0"
       refX="0"
       id="marker5050"
       style="overflow:visible"
       inkscape:isstock="true"
       inkscape:collect="always">
      <path
         id="path5052"
         d="M 0,0 5,-5 -12.5,0 5,5 0,0 Z"
         style="fill:#000000;fill-opacity:1;fill-rule:evenodd;stroke:#000000;stroke-width:1pt;stroke-opacity:1"
         transform="matrix(-0.8,0,0,-0.8,-10,0)"
         inkscape:connector-curvature="0" />
    </marker>
    <marker
       inkscape:isstock="true"
       style="overflow:visible"
       id="marker4855"
       refX="0"
       refY="0"
       orient="auto"
       inkscape:stockid="Arrow1Mend">
      <path
         transform="matrix(-0.4,0,0,-0.4,-4,0)"
         style="fill:#000000;fill-opacity:1;fill-rule:evenodd;stroke:#000000;stroke-width:1pt;stroke-opacity:1"
         d="M 0,0 5,-5 -12.5,0 5,5 0,0 Z"
         id="path4857"
         inkscape:connector-curvature="0" />
    </marker>
    <marker
       inkscape:isstock="true"
       style="overflow:visible"
       id="marker4593"
       refX="0"
       refY="0"
       orient="auto"
       inkscape:stockid="Arrow1Mend">
      <path
         transform="matrix(-0.4,0,0,-0.4,-4,0)"
         style="fill:#000000;fill-opacity:1;fill-rule:evenodd;stroke:#000000;stroke-width:1pt;stroke-opacity:1"
         d="M 0,0 5,-5 -12.5,0 5,5 0,0 Z"
         id="path4595"
         inkscape:connector-curvature="0" />
    </marker>
    <marker
       inkscape:stockid="Arrow1Mend"
       orient="auto"
       refY="0"
       refX="0"
       id="marker15234"
       style="overflow:visible"
       inkscape:isstock="true"
       inkscape:collect="always">
      <path
         id="path15236"
         d="M 0,0 5,-5 -12.5,0 5,5 0,0 Z"
         style="fill:#000000;fill-opacity:1;fill-rule:evenodd;stroke:#000000;stroke-width:1pt;stroke-opacity:1"
         transform="matrix(-0.4,0,0,-0.4,-4,0)"
         inkscape:connector-curvature="0" />
    </marker>
    <marker
       inkscape:stockid="TriangleInL"
       orient="auto"
       refY="0"
       refX="0"
       id="TriangleInL"
       style="overflow:visible"
       inkscape:isstock="true">
      <path
         id="path4359"
         d="m 5.77,0 -8.65,5 0,-10 8.65,5 z"
         style="fill:#000000;fill-opacity:1;fill-rule:evenodd;stroke:#000000;stroke-width:1pt;stroke-opacity:1"
         transform="scale(-0.8,-0.8)"
         inkscape:connector-curvature="0" />
    </marker>
    <marker
       inkscape:stockid="EmptyDiamondM"
       orient="auto"
       refY="0"
       refX="0"
       id="marker10700"
       style="overflow:visible"
       inkscape:isstock="true">
      <path
         id="path10702"
         d="M 0,-7.0710768 -7.0710894,0 0,7.0710589 7.0710462,0 0,-7.0710768 Z"
         style="fill:#ffffff;fill-rule:evenodd;stroke:#000000;stroke-width:1pt;stroke-opacity:1"
         transform="scale(0.4,0.4)"
         inkscape:connector-curvature="0" />
    </marker>
    <marker
       inkscape:stockid="Arrow2Mend"
       orient="auto"
       refY="0"
       refX="0"
       id="Arrow2Mend"
       style="overflow:visible"
       inkscape:isstock="true">
      <path
         id="path4253"
         style="fill:#000000;fill-opacity:1;fill-rule:evenodd;stroke:#000000;stroke-width:0.625;stroke-linejoin:round;stroke-opacity:1"
         d="M 8.7185878,4.0337352 -2.2072895,0.01601326 8.7185884,-4.0017078 c -1.7454984,2.3720609 -1.7354408,5.6174519 -6e-7,8.035443 z"
         transform="scale(-0.6,-0.6)"
         inkscape:connector-curvature="0" />
    </marker>
    <marker
       inkscape:stockid="Arrow1Send"
       orient="auto"
       refY="0"
       refX="0"
       id="Arrow1Send"
       style="overflow:visible"
       inkscape:isstock="true">
      <path
         id="path4241"
         d="M 0,0 5,-5 -12.5,0 5,5 0,0 Z"
         style="fill:#000000;fill-opacity:1;fill-rule:evenodd;stroke:#000000;stroke-width:1pt;stroke-opacity:1"
         transform="matrix(-0.2,0,0,-0.2,-1.2,0)"
         inkscape:connector-curvature="0" />
    </marker>
    <marker
       inkscape:isstock="true"
       style="overflow:visible"
       id="marker9129"
       refX="0"
       refY="0"
       orient="auto"
       inkscape:stockid="Arrow1Mend">
      <path
         transform="matrix(-0.4,0,0,-0.4,-4,0)"
         style="fill:#000000;fill-opacity:1;fill-rule:evenodd;stroke:#000000;stroke-width:1pt;stroke-opacity:1"
         d="M 0,0 5,-5 -12.5,0 5,5 0,0 Z"
         id="path9131"
         inkscape:connector-curvature="0" />
    </marker>
    <marker
       inkscape:stockid="Arrow1Mend"
       orient="auto"
       refY="0"
       refX="0"
       id="marker8927"
       style="overflow:visible"
       inkscape:isstock="true">
      <path
         id="path8929"
         d="M 0,0 5,-5 -12.5,0 5,5 0,0 Z"
         style="fill:#000000;fill-opacity:1;fill-rule:evenodd;stroke:#000000;stroke-width:1pt;stroke-opacity:1"
         transform="matrix(-0.4,0,0,-0.4,-4,0)"
         inkscape:connector-curvature="0" />
    </marker>
    <marker
       inkscape:stockid="Arrow1Mend"
       orient="auto"
       refY="0"
       refX="0"
       id="marker8731"
       style="overflow:visible"
       inkscape:isstock="true">
      <path
         id="path8733"
         d="M 0,0 5,-5 -12.5,0 5,5 0,0 Z"
         style="fill:#000000;fill-opacity:1;fill-rule:evenodd;stroke:#000000;stroke-width:1pt;stroke-opacity:1"
         transform="matrix(-0.4,0,0,-0.4,-4,0)"
         inkscape:connector-curvature="0" />
    </marker>
    <marker
       style="overflow:visible"
       id="marker8514"
       refX="0"
       refY="0"
       orient="auto"
       inkscape:stockid="DistanceEnd"
       inkscape:isstock="true">
      <g
         id="g8516"
         style="fill:#000000;fill-opacity:1;stroke:#000000;stroke-opacity:1">
        <path
           style="fill:#000000;fill-opacity:1;stroke:#000000;stroke-width:1.14999998;stroke-linecap:square;stroke-opacity:1"
           d="M 0,0 -2,0"
           id="path8518"
           inkscape:connector-curvature="0" />
        <path
           style="fill:#000000;fill-opacity:1;fill-rule:evenodd;stroke:#000000;stroke-opacity:1"
           d="M 0,0 -13,4 -9,0 -13,-4 0,0 Z"
           id="path8520"
           inkscape:connector-curvature="0" />
        <path
           style="fill:#000000;fill-opacity:1;stroke:#000000;stroke-width:1;stroke-linecap:square;stroke-opacity:1"
           d="M 0,-4 0,40"
           id="path8522"
           inkscape:connector-curvature="0" />
      </g>
    </marker>
    <marker
       style="overflow:visible"
       id="DistanceEnd"
       refX="0"
       refY="0"
       orient="auto"
       inkscape:stockid="DistanceEnd"
       inkscape:isstock="true">
      <g
         id="g2301"
         style="fill:#000000;fill-opacity:1;stroke:#000000;stroke-opacity:1">
        <path
           style="fill:#000000;fill-opacity:1;stroke:#000000;stroke-width:1.14999998;stroke-linecap:square;stroke-opacity:1"
           d="M 0,0 -2,0"
           id="path2316"
           inkscape:connector-curvature="0" />
        <path
           style="fill:#000000;fill-opacity:1;fill-rule:evenodd;stroke:#000000;stroke-opacity:1"
           d="M 0,0 -13,4 -9,0 -13,-4 0,0 Z"
           id="path2312"
           inkscape:connector-curvature="0" />
        <path
           style="fill:#000000;fill-opacity:1;stroke:#000000;stroke-width:1;stroke-linecap:square;stroke-opacity:1"
           d="M 0,-4 0,40"
           id="path2314"
           inkscape:connector-curvature="0" />
      </g>
    </marker>
    <marker
       inkscape:stockid="EmptyDiamondM"
       orient="auto"
       refY="0"
       refX="0"
       id="marker8056"
       style="overflow:visible"
       inkscape:isstock="true">
      <path
         id="path8058"
         d="M 0,-7.0710768 -7.0710894,0 0,7.0710589 7.0710462,0 0,-7.0710768 Z"
         style="fill:#ffffff;fill-rule:evenodd;stroke:#000000;stroke-width:1pt;stroke-opacity:1"
         transform="scale(0.4,0.4)"
         inkscape:connector-curvature="0" />
    </marker>
    <marker
       inkscape:stockid="Club"
       orient="auto"
       refY="0"
       refX="0"
       id="Club"
       style="overflow:visible"
       inkscape:isstock="true">
      <path
         id="path4455"
         d="m -1.5971367,-7.0977635 c -1.8892507,0 -3.426382,1.5371314 -3.426382,3.4263822 0,0.6566798 0.2383531,1.2269257 0.5594092,1.7481542 -0.038751,0.032111 -0.079672,0.058463 -0.1165436,0.093235 -0.6224234,-0.8549928 -1.5893983,-1.4451409 -2.7271199,-1.4451409 -1.8892515,-1e-7 -3.426382,1.5371314 -3.426382,3.42638214 0,1.88925076 1.5371305,3.42638216 3.426382,3.42638216 0.9934462,0 1.868619,-0.4420611 2.4940326,-1.1188187 -0.124687,0.3548915 -0.2097783,0.7214874 -0.2097783,1.1188187 0,1.8892506 1.5371313,3.4263822 3.426382,3.4263822 1.88925064,0 3.4263821,-1.5371316 3.4263821,-3.4263822 0,-0.7933959 -0.3155586,-1.4938285 -0.7691878,-2.0744763 C 2.4152718,1.7663868 3.7718375,2.2973711 4.7661444,3.8340272 4.0279463,3.0958289 3.5540908,1.7534117 3.5540908,-0.05852936 l -0.6293354,-0.04661745 0.5827179,-0.0233087 c 0,-1.81194109 0.4505466,-3.15435829 1.188745,-3.89255659 -0.9590906,1.4822308 -2.2571634,2.0263625 -3.5662345,2.3075635 0.4041964,-0.5619092 0.6992616,-1.213407 0.6992616,-1.9579327 0,-1.8892506 -1.53713146,-3.4263822 -3.4263821,-3.4263822 z"
         style="fill:#000000;fill-opacity:1;fill-rule:evenodd;stroke:#000000;stroke-width:0.74587913pt;stroke-opacity:1"
         transform="scale(0.6,0.6)"
         inkscape:connector-curvature="0" />
    </marker>
    <marker
       inkscape:isstock="true"
       style="overflow:visible"
       id="marker7772"
       refX="0"
       refY="0"
       orient="auto"
       inkscape:stockid="EmptyDiamondM"
       inkscape:collect="always">
      <path
         transform="scale(0.4,0.4)"
         style="fill:#ffffff;fill-rule:evenodd;stroke:#000000;stroke-width:1pt;stroke-opacity:1"
         d="M 0,-7.0710768 -7.0710894,0 0,7.0710589 7.0710462,0 0,-7.0710768 Z"
         id="path7774"
         inkscape:connector-curvature="0" />
    </marker>
    <marker
       inkscape:isstock="true"
       style="overflow:visible"
       id="marker6376"
       refX="0"
       refY="0"
       orient="auto"
       inkscape:stockid="Arrow1Mend"
       inkscape:collect="always">
      <path
         transform="matrix(-0.4,0,0,-0.4,-4,0)"
         style="fill:#000000;fill-opacity:1;fill-rule:evenodd;stroke:#000000;stroke-width:1pt;stroke-opacity:1"
         d="M 0,0 5,-5 -12.5,0 5,5 0,0 Z"
         id="path6378"
         inkscape:connector-curvature="0" />
    </marker>
    <marker
       inkscape:stockid="Arrow1Mend"
       orient="auto"
       refY="0"
       refX="0"
       id="marker6256"
       style="overflow:visible"
       inkscape:isstock="true"
       inkscape:collect="always">
      <path
         id="path6258"
         d="M 0,0 5,-5 -12.5,0 5,5 0,0 Z"
         style="fill:#000000;fill-opacity:1;fill-rule:evenodd;stroke:#000000;stroke-width:1pt;stroke-opacity:1"
         transform="matrix(-0.4,0,0,-0.4,-4,0)"
         inkscape:connector-curvature="0" />
    </marker>
    <marker
       inkscape:isstock="true"
       style="overflow:visible"
       id="marker6138"
       refX="0"
       refY="0"
       orient="auto"
       inkscape:stockid="Arrow1Lend"
       inkscape:collect="always">
      <path
         transform="matrix(-0.8,0,0,-0.8,-10,0)"
         style="fill:#000000;fill-opacity:1;fill-rule:evenodd;stroke:#000000;stroke-width:1pt;stroke-opacity:1"
         d="M 0,0 5,-5 -12.5,0 5,5 0,0 Z"
         id="path6140"
         inkscape:connector-curvature="0" />
    </marker>
    <marker
       inkscape:stockid="EmptyDiamondL"
       orient="auto"
       refY="0"
       refX="0"
       id="EmptyDiamondL"
       style="overflow:visible"
       inkscape:isstock="true">
      <path
         id="path4332"
         d="M 0,-7.0710768 -7.0710894,0 0,7.0710589 7.0710462,0 0,-7.0710768 Z"
         style="fill:#ffffff;fill-rule:evenodd;stroke:#000000;stroke-width:1pt;stroke-opacity:1"
         transform="scale(0.8,0.8)"
         inkscape:connector-curvature="0" />
    </marker>
    <marker
       inkscape:stockid="EmptyDiamondM"
       orient="auto"
       refY="0"
       refX="0"
       id="marker5836"
       style="overflow:visible"
       inkscape:isstock="true">
      <path
         id="path5838"
         d="M 0,-7.0710768 -7.0710894,0 0,7.0710589 7.0710462,0 0,-7.0710768 Z"
         style="fill:#ffffff;fill-rule:evenodd;stroke:#000000;stroke-width:1pt;stroke-opacity:1"
         transform="scale(0.4,0.4)"
         inkscape:connector-curvature="0" />
    </marker>
    <marker
       inkscape:isstock="true"
       style="overflow:visible"
       id="marker5736"
       refX="0"
       refY="0"
       orient="auto"
       inkscape:stockid="EmptyDiamondM">
      <path
         transform="scale(0.4,0.4)"
         style="fill:#ffffff;fill-rule:evenodd;stroke:#000000;stroke-width:1pt;stroke-opacity:1"
         d="M 0,-7.0710768 -7.0710894,0 0,7.0710589 7.0710462,0 0,-7.0710768 Z"
         id="path5738"
         inkscape:connector-curvature="0" />
    </marker>
    <marker
       inkscape:stockid="EmptyDiamondM"
       orient="auto"
       refY="0"
       refX="0"
       id="marker5688"
       style="overflow:visible"
       inkscape:isstock="true">
      <path
         id="path5690"
         d="M 0,-7.0710768 -7.0710894,0 0,7.0710589 7.0710462,0 0,-7.0710768 Z"
         style="fill:#ffffff;fill-rule:evenodd;stroke:#000000;stroke-width:1pt;stroke-opacity:1"
         transform="scale(0.4,0.4)"
         inkscape:connector-curvature="0" />
    </marker>
    <marker
       inkscape:stockid="EmptyDiamondM"
       orient="auto"
       refY="0"
       refX="0"
       id="marker5582"
       style="overflow:visible"
       inkscape:isstock="true"
       inkscape:collect="always">
      <path
         id="path5584"
         d="M 0,-7.0710768 -7.0710894,0 0,7.0710589 7.0710462,0 0,-7.0710768 Z"
         style="fill:#ffffff;fill-rule:evenodd;stroke:#000000;stroke-width:1pt;stroke-opacity:1"
         transform="scale(0.4,0.4)"
         inkscape:connector-curvature="0" />
    </marker>
    <marker
       inkscape:isstock="true"
       style="overflow:visible"
       id="marker5476"
       refX="0"
       refY="0"
       orient="auto"
       inkscape:stockid="EmptyDiamondM"
       inkscape:collect="always">
      <path
         transform="scale(0.4,0.4)"
         style="fill:#ffffff;fill-rule:evenodd;stroke:#000000;stroke-width:1pt;stroke-opacity:1"
         d="M 0,-7.0710768 -7.0710894,0 0,7.0710589 7.0710462,0 0,-7.0710768 Z"
         id="path5478"
         inkscape:connector-curvature="0" />
    </marker>
    <marker
       inkscape:isstock="true"
       style="overflow:visible"
       id="marker5382"
       refX="0"
       refY="0"
       orient="auto"
       inkscape:stockid="EmptyDiamondM"
       inkscape:collect="always">
      <path
         transform="scale(0.4,0.4)"
         style="fill:#ffffff;fill-rule:evenodd;stroke:#000000;stroke-width:1pt;stroke-opacity:1"
         d="M 0,-7.0710768 -7.0710894,0 0,7.0710589 7.0710462,0 0,-7.0710768 Z"
         id="path5384"
         inkscape:connector-curvature="0" />
    </marker>
    <marker
       inkscape:stockid="EmptyDiamondM"
       orient="auto"
       refY="0"
       refX="0"
       id="marker5180"
       style="overflow:visible"
       inkscape:isstock="true"
       inkscape:collect="always">
      <path
         id="path5182"
         d="M 0,-7.0710768 -7.0710894,0 0,7.0710589 7.0710462,0 0,-7.0710768 Z"
         style="fill:#ffffff;fill-rule:evenodd;stroke:#000000;stroke-width:1pt;stroke-opacity:1"
         transform="scale(0.4,0.4)"
         inkscape:connector-curvature="0" />
    </marker>
    <marker
       inkscape:stockid="EmptyDiamondSend"
       orient="auto"
       refY="0"
       refX="0"
       id="EmptyDiamondSend"
       style="overflow:visible"
       inkscape:isstock="true">
      <path
         id="path4356"
         d="M 0,-7.0710768 -7.0710894,0 0,7.0710589 7.0710462,0 0,-7.0710768 Z"
         style="fill:#ffffff;fill-rule:evenodd;stroke:#000000;stroke-width:1pt;stroke-opacity:1"
         transform="matrix(0.2,0,0,0.2,-1.2,0)"
         inkscape:connector-curvature="0" />
    </marker>
    <marker
       inkscape:stockid="EmptyDiamondS"
       orient="auto"
       refY="0"
       refX="0"
       id="marker5002"
       style="overflow:visible"
       inkscape:isstock="true">
      <path
         id="path5004"
         d="M 0,-7.0710768 -7.0710894,0 0,7.0710589 7.0710462,0 0,-7.0710768 Z"
         style="fill:#ffffff;fill-rule:evenodd;stroke:#000000;stroke-width:1pt;stroke-opacity:1"
         transform="scale(0.2,0.2)"
         inkscape:connector-curvature="0" />
    </marker>
    <marker
       inkscape:stockid="EmptyDiamondS"
       orient="auto"
       refY="0"
       refX="0"
       id="marker4646"
       style="overflow:visible"
       inkscape:isstock="true">
      <path
         id="path4648"
         d="M 0,-7.0710768 -7.0710894,0 0,7.0710589 7.0710462,0 0,-7.0710768 Z"
         style="fill:#ffffff;fill-rule:evenodd;stroke:#000000;stroke-width:1pt;stroke-opacity:1"
         transform="scale(0.2,0.2)"
         inkscape:connector-curvature="0" />
    </marker>
    <marker
       inkscape:stockid="EmptyDiamondS"
       orient="auto"
       refY="0"
       refX="0"
       id="EmptyDiamondS"
       style="overflow:visible"
       inkscape:isstock="true">
      <path
         id="path4338"
         d="M 0,-7.0710768 -7.0710894,0 0,7.0710589 7.0710462,0 0,-7.0710768 Z"
         style="fill:#ffffff;fill-rule:evenodd;stroke:#000000;stroke-width:1pt;stroke-opacity:1"
         transform="scale(0.2,0.2)"
         inkscape:connector-curvature="0" />
    </marker>
    <marker
       inkscape:stockid="Arrow1Mstart"
       orient="auto"
       refY="0"
       refX="0"
       id="Arrow1Mstart"
       style="overflow:visible"
       inkscape:isstock="true">
      <path
         id="path4232"
         d="M 0,0 5,-5 -12.5,0 5,5 0,0 Z"
         style="fill:#000000;fill-opacity:1;fill-rule:evenodd;stroke:#000000;stroke-width:1pt;stroke-opacity:1"
         transform="matrix(0.4,0,0,0.4,4,0)"
         inkscape:connector-curvature="0" />
    </marker>
    <marker
       inkscape:stockid="Arrow1Mend"
       orient="auto"
       refY="0"
       refX="0"
       id="Arrow1Mend"
       style="overflow:visible"
       inkscape:isstock="true">
      <path
         id="path4235"
         d="M 0,0 5,-5 -12.5,0 5,5 0,0 Z"
         style="fill:#000000;fill-opacity:1;fill-rule:evenodd;stroke:#000000;stroke-width:1pt;stroke-opacity:1"
         transform="matrix(-0.4,0,0,-0.4,-4,0)"
         inkscape:connector-curvature="0" />
    </marker>
    <marker
       inkscape:stockid="Arrow1Lend"
       orient="auto"
       refY="0"
       refX="0"
       id="Arrow1Lend"
       style="overflow:visible"
       inkscape:isstock="true"
       inkscape:collect="always">
      <path
         id="path4229"
         d="M 0,0 5,-5 -12.5,0 5,5 0,0 Z"
         style="fill:#000000;fill-opacity:1;fill-rule:evenodd;stroke:#000000;stroke-width:1pt;stroke-opacity:1"
         transform="matrix(-0.8,0,0,-0.8,-10,0)"
         inkscape:connector-curvature="0" />
    </marker>
  </defs>
  <sodipodi:namedview
     id="base"
     pagecolor="#ffffff"
     bordercolor="#666666"
     borderopacity="1.0"
     inkscape:pageopacity="0.0"
     inkscape:pageshadow="2"
     inkscape:zoom="0.096970677"
     inkscape:cx="799.11024"
     inkscape:cy="-122.59477"
     inkscape:document-units="px"
     inkscape:current-layer="layer1"
     showgrid="false"
     inkscape:window-width="959"
     inkscape:window-height="1052"
     inkscape:window-x="960"
     inkscape:window-y="28"
     inkscape:window-maximized="0" />
  <metadata
     id="metadata7">
    <rdf:RDF>
      <cc:Work
         rdf:about="">
        <dc:format>image/svg+xml</dc:format>
        <dc:type
           rdf:resource="http://purl.org/dc/dcmitype/StillImage" />
        <dc:title />
      </cc:Work>
    </rdf:RDF>
  </metadata>
  <g
     inkscape:label="Layer 1"
     inkscape:groupmode="layer"
     id="layer1"
     transform="translate(0,-166.53543)">
    <flowRoot
       xml:space="preserve"
       id="flowRoot4170"
       style="font-style:normal;font-weight:normal;font-size:40px;line-height:125%;font-family:sans-serif;letter-spacing:0px;word-spacing:0px;fill:#000000;fill-opacity:1;stroke:none;stroke-width:1px;stroke-linecap:butt;stroke-linejoin:miter;stroke-opacity:1"><flowRegion
         id="flowRegion4172"><rect
           id="rect4174"
           width="81.428574"
           height="68.571426"
           x="104.28571"
           y="450.93362" /></flowRegion><flowPara
         id="flowPara4176" /></flowRoot>    <text
       sodipodi:linespacing="125%"
       id="text4714"
       y="469.50507"
       x="367.14285"
       style="font-style:normal;font-weight:normal;font-size:22.5px;line-height:125%;font-family:sans-serif;letter-spacing:0px;word-spacing:0px;fill:#000000;fill-opacity:1;stroke:none;stroke-width:1px;stroke-linecap:butt;stroke-linejoin:miter;stroke-opacity:1"
       xml:space="preserve"><tspan
         y="469.50507"
         x="367.14285"
         id="tspan4716"
         sodipodi:role="line" /></text>
    <text
       xml:space="preserve"
       style="font-style:normal;font-weight:normal;font-size:20px;line-height:125%;font-family:sans-serif;letter-spacing:0px;word-spacing:0px;fill:#000000;fill-opacity:1;stroke:none;stroke-width:1px;stroke-linecap:butt;stroke-linejoin:miter;stroke-opacity:1"
       x="229"
       y="236.36221"
       id="text9806"
       sodipodi:linespacing="125%"><tspan
         sodipodi:role="line"
         id="tspan9808"
         x="229"
         y="236.36221" /></text>
    <text
       xml:space="preserve"
       style="font-style:normal;font-weight:normal;font-size:20.8608036px;line-height:125%;font-family:sans-serif;letter-spacing:0px;word-spacing:0px;fill:#000000;fill-opacity:1;stroke:none;stroke-width:1px;stroke-linecap:butt;stroke-linejoin:miter;stroke-opacity:1"
       x="632.29651"
       y="732.03082"
       id="text9888"
       sodipodi:linespacing="125%"
       transform="scale(1.0078803,0.99218131)"><tspan
         sodipodi:role="line"
         x="632.29651"
         y="732.03082"
         id="tspan9892" /></text>
    <text
       xml:space="preserve"
       style="font-style:normal;font-weight:normal;font-size:18.68122864px;line-height:125%;font-family:sans-serif;letter-spacing:0px;word-spacing:0px;fill:#000000;fill-opacity:1;stroke:none;stroke-width:1px;stroke-linecap:butt;stroke-linejoin:miter;stroke-opacity:1"
       x="621.71509"
       y="774.51202"
       id="text9896"
       sodipodi:linespacing="125%"
       transform="scale(1.0250327,0.97557864)"><tspan
         sodipodi:role="line"
         id="tspan9898"
         x="621.71509"
         y="774.51202" /></text>
    <text
       xml:space="preserve"
       style="font-style:normal;font-weight:normal;font-size:25px;line-height:125%;font-family:sans-serif;letter-spacing:0px;word-spacing:0px;fill:#000000;fill-opacity:1;stroke:none;stroke-width:1px;stroke-linecap:butt;stroke-linejoin:miter;stroke-opacity:1"
       x="716.29919"
       y="718.25427"
       id="text12260"
       sodipodi:linespacing="125%"><tspan
         sodipodi:role="line"
         id="tspan12262"
         x="716.29919"
         y="718.25427" /></text>
    <text
       xml:space="preserve"
       style="font-style:normal;font-weight:normal;font-size:88.56505585px;line-height:125%;font-family:sans-serif;letter-spacing:0px;word-spacing:0px;fill:#000000;fill-opacity:1;stroke:none;stroke-width:1px;stroke-linecap:butt;stroke-linejoin:miter;stroke-opacity:1"
       x="318.9613"
       y="110.36279"
       id="text12717"
       sodipodi:linespacing="125%"
       transform="scale(0.80711372,1.2389828)"><tspan
         sodipodi:role="line"
         id="tspan12719"
         x="318.9613"
         y="110.36279" /></text>
    <flowRoot
       xml:space="preserve"
       id="flowRoot12731"
       style="font-style:normal;font-weight:normal;font-size:25px;line-height:125%;font-family:sans-serif;letter-spacing:0px;word-spacing:0px;fill:#000000;fill-opacity:1;stroke:none;stroke-width:1px;stroke-linecap:butt;stroke-linejoin:miter;stroke-opacity:1"><flowRegion
         id="flowRegion12733"><rect
           id="rect12735"
           width="56"
           height="53"
           x="567"
           y="514.36218" /></flowRegion><flowPara
         id="flowPara12737" /></flowRoot>    <text
       xml:space="preserve"
       style="font-style:normal;font-weight:normal;font-size:25px;line-height:125%;font-family:sans-serif;letter-spacing:0px;word-spacing:0px;fill:#000000;fill-opacity:1;stroke:none;stroke-width:1px;stroke-linecap:butt;stroke-linejoin:miter;stroke-opacity:1"
       x="509"
       y="918.36218"
       id="text6275"
       sodipodi:linespacing="125%"><tspan
         sodipodi:role="line"
         id="tspan6277"
         x="509"
         y="918.36218" /></text>
    <g
       id="g5698">
      <rect
         y="242.07649"
         x="62.85714"
         height="598.57141"
         width="245.71428"
         id="rect4152"
         style="opacity:0;fill:#000000" />
      <rect
         y="200.64792"
         x="41.42857"
         height="827.14288"
         width="291.42856"
         id="rect4156"
         style="opacity:1;fill:none" />
      <rect
         y="317.37375"
         x="57.582993"
         height="565.83398"
         width="114.26258"
         id="rect4164"
         style="opacity:1;fill:none;fill-opacity:1;stroke:#000000;stroke-width:2.02313137;stroke-linecap:square;stroke-miterlimit:4;stroke-dasharray:none;stroke-opacity:0.97368421" />
      <g
         transform="translate(-10,84)"
         id="text4166"
         style="font-style:normal;font-weight:normal;font-size:40px;line-height:100%;font-family:sans-serif;letter-spacing:0px;word-spacing:0px;fill:#000000;fill-opacity:1;stroke:none;stroke-width:1px;stroke-linecap:butt;stroke-linejoin:miter;stroke-opacity:1">
        <path
           inkscape:connector-curvature="0"
           id="path3933"
           style="font-size:30px;line-height:100%"
           d="m 97.508713,482.84106 17.182617,0 0,2.25586 -13.82813,17.12403 14.16504,0 0,2.49023 -17.856441,0 0,-2.25586 13.828121,-17.12402 -13.491207,0 0,-2.49024 z" />
        <path
           inkscape:connector-curvature="0"
           id="path3935"
           style="font-size:30px;line-height:100%"
           d="m 125.92668,494.32544 q -2.10937,0 -3.32519,1.12793 -1.20118,1.12793 -1.20118,3.10547 0,1.97754 1.20118,3.10547 1.21582,1.12793 3.32519,1.12793 2.10938,0 3.3252,-1.12793 1.21582,-1.14258 1.21582,-3.10547 0,-1.97754 -1.21582,-3.10547 -1.20118,-1.12793 -3.3252,-1.12793 z m -2.95898,-1.25977 q -1.9043,-0.46875 -2.97364,-1.77246 -1.05468,-1.30371 -1.05468,-3.17871 0,-2.62207 1.86035,-4.14551 1.875,-1.52343 5.12695,-1.52343 3.2666,0 5.12695,1.52343 1.86036,1.52344 1.86036,4.14551 0,1.875 -1.06934,3.17871 -1.05469,1.30371 -2.94434,1.77246 2.13868,0.49805 3.3252,1.94825 1.20117,1.45019 1.20117,3.54492 0,3.17871 -1.94824,4.87793 -1.93359,1.69922 -5.55176,1.69922 -3.61816,0 -5.5664,-1.69922 -1.9336,-1.69922 -1.9336,-4.87793 0,-2.09473 1.20117,-3.54492 1.20118,-1.4502 3.33985,-1.94825 z m -1.08399,-4.67285 q 0,1.69922 1.05469,2.65137 1.06934,0.95215 2.98828,0.95215 1.9043,0 2.97363,-0.95215 1.08399,-0.95215 1.08399,-2.65137 0,-1.69922 -1.08399,-2.65136 -1.06933,-0.95215 -2.97363,-0.95215 -1.91894,0 -2.98828,0.95215 -1.05469,0.95214 -1.05469,2.65136 z" />
        <path
           inkscape:connector-curvature="0"
           id="path3937"
           style="font-size:30px;line-height:100%"
           d="m 145.02824,484.78931 q -2.28515,0 -3.44238,2.25586 -1.14258,2.24121 -1.14258,6.75293 0,4.49707 1.14258,6.75293 1.15723,2.24121 3.44238,2.24121 2.29981,0 3.44239,-2.24121 1.15722,-2.25586 1.15722,-6.75293 0,-4.51172 -1.15722,-6.75293 -1.14258,-2.25586 -3.44239,-2.25586 z m 0,-2.34375 q 3.67676,0 5.61036,2.91504 1.94824,2.90039 1.94824,8.4375 0,5.52246 -1.94824,8.4375 -1.9336,2.90039 -5.61036,2.90039 -3.67675,0 -5.625,-2.90039 -1.93359,-2.91504 -1.93359,-8.4375 0,-5.53711 1.93359,-8.4375 1.94825,-2.91504 5.625,-2.91504 z" />
      </g>
      <rect
         y="479.21936"
         x="350"
         height="102.85714"
         width="334.28571"
         id="rect4182"
         style="opacity:1;fill:none;fill-opacity:1;stroke:#000000;stroke-width:2;stroke-linecap:square;stroke-miterlimit:4;stroke-dasharray:none;stroke-opacity:0.97368421" />
      <rect
         y="762.07648"
         x="351.42856"
         height="107.14286"
         width="318.57144"
         id="rect4184"
         style="opacity:1;fill:none;fill-opacity:1;stroke:#000000;stroke-width:2;stroke-linecap:square;stroke-miterlimit:4;stroke-dasharray:none;stroke-opacity:0.97368421" />
      <path
         inkscape:connector-curvature="0"
         id="path4194"
         d="m 86.996284,318.05477 27.187266,32.43575 30.81226,-32.43575 z"
         style="fill:none;fill-rule:evenodd;stroke:#000000;stroke-width:2.19114733;stroke-linecap:butt;stroke-linejoin:miter;stroke-miterlimit:4;stroke-dasharray:none;stroke-opacity:1" />
      <path
         inkscape:connector-curvature="0"
         id="path4206"
         d="m 174.28571,346.3622 398.57143,-1.42857 1.42857,134.28572"
         style="fill:none;fill-rule:evenodd;stroke:#000000;stroke-width:2;stroke-linecap:butt;stroke-linejoin:miter;stroke-miterlimit:4;stroke-dasharray:none;stroke-opacity:1;marker-end:url(#Arrow1Lend)" />
      <path
         inkscape:connector-curvature="0"
         id="path4218"
         d="m 172.83761,546.43312 176.7767,0"
         style="fill:none;fill-rule:evenodd;stroke:#000000;stroke-width:2;stroke-linecap:butt;stroke-linejoin:miter;stroke-miterlimit:4;stroke-dasharray:none;stroke-opacity:1;marker-end:url(#marker5382)" />
      <path
         style="fill:none;fill-rule:evenodd;stroke:#000000;stroke-width:2;stroke-linecap:butt;stroke-linejoin:miter;stroke-miterlimit:4;stroke-dasharray:none;stroke-dashoffset:0;stroke-opacity:1;marker-end:url(#marker5180)"
         d="m 172.83761,506.02702 176.7767,0"
         id="path4220"
         inkscape:connector-curvature="0" />
      <g
         transform="translate(-10,84)"
         id="text4692"
         style="font-style:normal;font-weight:normal;font-size:40px;line-height:125%;font-family:sans-serif;letter-spacing:0px;word-spacing:0px;fill:#000000;fill-opacity:1;stroke:none;stroke-width:1px;stroke-linecap:butt;stroke-linejoin:miter;stroke-opacity:1">
        <path
           inkscape:connector-curvature="0"
           id="path3864"
           d="m 448.33426,427.90768 5.87891,0 7.4414,19.84375 7.48047,-19.84375 5.87891,0 0,29.16016 -3.84766,0 0,-25.60547 -7.51953,20 -3.96484,0 -7.51954,-20 0,25.60547 -3.82812,0 0,-29.16016 z" />
        <path
           inkscape:connector-curvature="0"
           id="path3866"
           d="m 501.4202,445.2319 0,1.75782 -16.52344,0 q 0.23437,3.71093 2.22656,5.66406 2.01172,1.93359 5.58594,1.93359 2.07031,0 4.00391,-0.50781 1.95312,-0.50781 3.86718,-1.52344 l 0,3.39844 q -1.93359,0.82031 -3.96484,1.25 -2.03125,0.42969 -4.12109,0.42969 -5.23438,0 -8.30079,-3.04688 -3.04687,-3.04687 -3.04687,-8.24219 0,-5.37109 2.89062,-8.51562 2.91016,-3.16406 7.83204,-3.16406 4.41406,0 6.97265,2.85156 2.57813,2.83203 2.57813,7.71484 z m -3.59375,-1.05468 q -0.0391,-2.94922 -1.66016,-4.70704 -1.60156,-1.75781 -4.25781,-1.75781 -3.00781,0 -4.82422,1.69922 -1.79688,1.69922 -2.07031,4.78516 l 12.8125,-0.0195 z" />
        <path
           inkscape:connector-curvature="0"
           id="path3868"
           d="m 524.34988,439.39206 q 1.34766,-2.42188 3.22266,-3.57422 1.875,-1.15234 4.41406,-1.15234 3.41797,0 5.27344,2.40234 1.85547,2.38281 1.85547,6.79688 l 0,13.20312 -3.61328,0 0,-13.08594 q 0,-3.14453 -1.11328,-4.66797 -1.11328,-1.52343 -3.39844,-1.52343 -2.79297,0 -4.41406,1.85547 -1.6211,1.85546 -1.6211,5.05859 l 0,12.36328 -3.61328,0 0,-13.08594 q 0,-3.16406 -1.11328,-4.66797 -1.11328,-1.52343 -3.4375,-1.52343 -2.75391,0 -4.375,1.875 -1.62109,1.85547 -1.62109,5.03906 l 0,12.36328 -3.61328,0 0,-21.875 3.61328,0 0,3.39844 q 1.23047,-2.01172 2.94922,-2.96875 1.71875,-0.95703 4.08203,-0.95703 2.38281,0 4.04297,1.21093 1.67968,1.21094 2.48046,3.51563 z" />
        <path
           inkscape:connector-curvature="0"
           id="path3870"
           d="m 554.77957,437.71237 q -2.89062,0 -4.57031,2.26563 -1.67969,2.24609 -1.67969,6.17187 0,3.92578 1.66016,6.19141 1.67969,2.24609 4.58984,2.24609 2.8711,0 4.55078,-2.26562 1.67969,-2.26563 1.67969,-6.17188 0,-3.88672 -1.67969,-6.15234 -1.67968,-2.28516 -4.55078,-2.28516 z m 0,-3.04687 q 4.6875,0 7.36328,3.04687 2.67578,3.04688 2.67578,8.4375 0,5.3711 -2.67578,8.4375 -2.67578,3.04688 -7.36328,3.04688 -4.70703,0 -7.38281,-3.04688 -2.65625,-3.0664 -2.65625,-8.4375 0,-5.39062 2.65625,-8.4375 2.67578,-3.04687 7.38281,-3.04687 z" />
        <path
           inkscape:connector-curvature="0"
           id="path3872"
           d="m 583.43192,438.55222 q -0.60547,-0.35157 -1.32813,-0.50782 -0.70312,-0.17578 -1.5625,-0.17578 -3.04687,0 -4.6875,1.99219 -1.62109,1.97266 -1.62109,5.68359 l 0,11.52344 -3.61328,0 0,-21.875 3.61328,0 0,3.39844 q 1.13281,-1.99219 2.94922,-2.94922 1.8164,-0.97656 4.41406,-0.97656 0.37109,0 0.82031,0.0586 0.44922,0.0391 0.99609,0.13672 l 0.0195,3.69141 z" />
        <path
           inkscape:connector-curvature="0"
           id="path3874"
           d="m 596.34207,459.09909 q -1.52344,3.90625 -2.96875,5.09766 -1.44531,1.1914 -3.86719,1.1914 l -2.87109,0 0,-3.00781 2.10938,0 q 1.48437,0 2.30468,-0.70312 0.82032,-0.70313 1.81641,-3.32032 l 0.64453,-1.64062 -8.84766,-21.52344 3.8086,0 6.83594,17.10938 6.83593,-17.10938 3.8086,0 -9.60938,23.90625 z" />
      </g>
      <g
         transform="translate(-10,84)"
         id="text4892"
         style="font-style:normal;font-weight:normal;font-size:22.5px;line-height:125%;font-family:sans-serif;letter-spacing:0px;word-spacing:0px;fill:#000000;fill-opacity:1;stroke:none;stroke-width:1px;stroke-linecap:butt;stroke-linejoin:miter;stroke-opacity:1">
        <path
           inkscape:connector-curvature="0"
           id="path3919"
           d="m 214.97874,397.64816 3.30689,0 4.18579,11.16211 4.20776,-11.16211 3.30689,0 0,16.40259 -2.16431,0 0,-14.40308 -4.22973,11.25 -2.23023,0 -4.22974,-11.25 0,14.40308 -2.15332,0 0,-16.40259 z" />
        <path
           inkscape:connector-curvature="0"
           id="path3921"
           d="m 242.18089,406.36032 q 0.71411,0.2417 1.38428,1.03272 0.68115,0.79101 1.3623,2.17529 l 2.2522,4.48242 -2.38403,0 -2.09839,-4.20776 q -0.81299,-1.64795 -1.58203,-2.18628 -0.75806,-0.53833 -2.07642,-0.53833 l -2.41699,0 0,6.93237 -2.21924,0 0,-16.40259 5.00977,0 q 2.8125,0 4.19678,1.17554 1.38427,1.17554 1.38427,3.54858 0,1.54908 -0.72509,2.5708 -0.71412,1.02173 -2.08741,1.41724 z m -5.55908,-6.88843 0,5.82276 2.79053,0 q 1.604,0 2.41699,-0.73609 0.82398,-0.74707 0.82398,-2.18628 0,-1.43921 -0.82398,-2.1643 -0.81299,-0.73609 -2.41699,-0.73609 l -2.79053,0 z" />
        <path
           inkscape:connector-curvature="0"
           id="path3923"
           d="m 250.0471,397.64816 10.3711,0 0,1.86768 -8.15186,0 0,4.85596 7.81128,0 0,1.86767 -7.81128,0 0,5.9436 8.34961,0 0,1.86768 -10.56885,0 0,-16.40259 z" />
        <path
           inkscape:connector-curvature="0"
           id="path3925"
           d="m 270.9431,399.15329 q -2.41699,0 -3.84521,1.80176 -1.41724,1.80176 -1.41724,4.91089 0,3.09814 1.41724,4.8999 1.42822,1.80176 3.84521,1.80176 2.41699,0 3.82324,-1.80176 1.41724,-1.80176 1.41724,-4.8999 0,-3.10913 -1.41724,-4.91089 -1.40625,-1.80176 -3.82324,-1.80176 z m 3.10913,14.60083 2.92236,3.19702 -2.68066,0 -2.42798,-2.62573 q -0.36255,0.022 -0.5603,0.033 -0.18677,0.011 -0.36255,0.011 -3.46069,0 -5.53711,-2.30712 -2.06543,-2.31812 -2.06543,-6.19629 0,-3.88916 2.06543,-6.19629 2.07642,-2.31812 5.53711,-2.31812 3.44971,0 5.51514,2.31812 2.06543,2.30713 2.06543,6.19629 0,2.85644 -1.15357,4.88891 -1.14258,2.03247 -3.31787,2.99927 z" />
      </g>
      <g
         transform="translate(-10,84)"
         id="text4896"
         style="font-style:normal;font-weight:normal;font-size:22.5px;line-height:125%;font-family:sans-serif;letter-spacing:0px;word-spacing:0px;fill:#000000;fill-opacity:1;stroke:none;stroke-width:1px;stroke-linecap:butt;stroke-linejoin:miter;stroke-opacity:1">
        <path
           inkscape:connector-curvature="0"
           id="path3928"
           d="m 223.36366,448.29395 q 0.71411,0.24169 1.38428,1.03271 0.68115,0.79102 1.3623,2.17529 l 2.2522,4.48242 -2.38403,0 -2.09839,-4.20776 q -0.81299,-1.64795 -1.58203,-2.18628 -0.75806,-0.53833 -2.07642,-0.53833 l -2.41699,0 0,6.93237 -2.21924,0 0,-16.40258 5.00977,0 q 2.8125,0 4.19678,1.17553 1.38427,1.17554 1.38427,3.54859 0,1.54907 -0.72509,2.5708 -0.71412,1.02173 -2.08741,1.41724 z m -5.55908,-6.88843 0,5.82275 2.79053,0 q 1.604,0 2.41699,-0.73608 0.82397,-0.74707 0.82397,-2.18628 0,-1.43921 -0.82397,-2.16431 -0.81299,-0.73608 -2.41699,-0.73608 l -2.79053,0 z" />
        <path
           inkscape:connector-curvature="0"
           id="path3930"
           d="m 233.44911,441.40552 0,12.75512 2.68067,0 q 3.39477,0 4.96582,-1.53808 1.58203,-1.53809 1.58203,-4.85596 0,-3.2959 -1.58203,-4.823 -1.57105,-1.53808 -4.96582,-1.53808 l -2.68067,0 z m -2.21924,-1.82373 4.55933,0 q 4.76807,0 6.99829,1.98852 2.23023,1.97754 2.23023,6.19629 0,4.24072 -2.24122,6.22925 -2.24121,1.98852 -6.9873,1.98852 l -4.55933,0 0,-16.40258 z" />
      </g>
      <path
         inkscape:connector-curvature="0"
         id="path4964"
         d="m 205.16249,520.67423 28.78935,0"
         style="fill:none;fill-rule:evenodd;stroke:#000000;stroke-width:1px;stroke-linecap:butt;stroke-linejoin:miter;stroke-opacity:1" />
      <path
         inkscape:connector-curvature="0"
         id="path5178"
         d="m 291.02546,547.42297 0,150.51272 125.25891,0 0,64.64977"
         style="fill:none;fill-rule:evenodd;stroke:#000000;stroke-width:2;stroke-linecap:butt;stroke-linejoin:miter;stroke-miterlimit:4;stroke-dasharray:none;stroke-opacity:1;marker-start:url(#marker5476);marker-end:url(#marker5582)" />
      <path
         sodipodi:nodetypes="cc"
         inkscape:connector-curvature="0"
         id="path5728"
         d="m 171.82746,730.28088 127.07719,0 0,75.08132 51.59535,0"
         style="fill:none;fill-rule:evenodd;stroke:#000000;stroke-width:2;stroke-linecap:butt;stroke-linejoin:miter;stroke-miterlimit:4;stroke-dasharray:none;stroke-opacity:1;marker-end:url(#marker5836)" />
      <g
         id="text6114"
         style="font-style:normal;font-weight:normal;font-size:20px;line-height:125%;font-family:sans-serif;letter-spacing:0px;word-spacing:0px;fill:#000000;fill-opacity:1;stroke:none;stroke-width:1px;stroke-linecap:butt;stroke-linejoin:miter;stroke-opacity:1">
        <path
           id="path5684"
           style=""
           d="m 359.73965,799.52313 1.97266,0 0,14.58008 -1.97266,0 0,-14.58008 z" />
        <path
           id="path5686"
           style=""
           d="m 371.55606,800.86102 q -2.14844,0 -3.41797,1.60157 -1.25976,1.60156 -1.25976,4.36523 0,2.75391 1.25976,4.35547 1.26953,1.60156 3.41797,1.60156 2.14844,0 3.39844,-1.60156 1.25976,-1.60156 1.25976,-4.35547 0,-2.76367 -1.25976,-4.36523 -1.25,-1.60157 -3.39844,-1.60157 z m 0,-1.60156 q 3.06641,0 4.90234,2.06055 1.83594,2.05078 1.83594,5.50781 0,3.44727 -1.83594,5.50781 -1.83593,2.05078 -4.90234,2.05078 -3.07617,0 -4.92187,-2.05078 -1.83594,-2.05078 -1.83594,-5.50781 0,-3.45703 1.83594,-5.50781 1.8457,-2.06055 4.92187,-2.06055 z" />
        <path
           id="path5688"
           style=""
           d="m 388.29434,807.26727 q 0.63477,0.21485 1.23047,0.91797 0.60547,0.70313 1.21094,1.9336 l 2.00195,3.98437 -2.11914,0 -1.86523,-3.74023 q -0.72266,-1.46485 -1.40625,-1.94336 -0.67383,-0.47852 -1.84571,-0.47852 l -2.14843,0 0,6.16211 -1.97266,0 0,-14.58008 4.45312,0 q 2.5,0 3.73047,1.04492 1.23047,1.04493 1.23047,3.1543 0,1.37695 -0.64453,2.28516 -0.63476,0.9082 -1.85547,1.25976 z m -4.9414,-6.12304 0,5.17578 2.48046,0 q 1.42579,0 2.14844,-0.6543 0.73242,-0.66406 0.73242,-1.94336 0,-1.2793 -0.73242,-1.92383 -0.72265,-0.65429 -2.14844,-0.65429 l -2.48046,0 z" />
        <path
           id="path5691"
           style=""
           d="m 401.2045,800.86102 q -2.14844,0 -3.41797,1.60157 -1.25977,1.60156 -1.25977,4.36523 0,2.75391 1.25977,4.35547 1.26953,1.60156 3.41797,1.60156 2.14844,0 3.39844,-1.60156 1.25976,-1.60156 1.25976,-4.35547 0,-2.76367 -1.25976,-4.36523 -1.25,-1.60157 -3.39844,-1.60157 z m 2.76367,12.97852 2.59766,2.8418 -2.38282,0 -2.1582,-2.33399 q -0.32226,0.0195 -0.49805,0.0293 -0.16601,0.01 -0.32226,0.01 -3.07617,0 -4.92188,-2.05078 -1.83593,-2.06054 -1.83593,-5.50781 0,-3.45703 1.83593,-5.50781 1.84571,-2.06055 4.92188,-2.06055 3.0664,0 4.90234,2.06055 1.83594,2.05078 1.83594,5.50781 0,2.53906 -1.02539,4.3457 -1.01563,1.80664 -2.94922,2.66602 z" />
      </g>
      <g
         id="text6118"
         style="font-style:normal;font-weight:normal;font-size:20px;line-height:125%;font-family:sans-serif;letter-spacing:0px;word-spacing:0px;fill:#000000;fill-opacity:1;stroke:none;stroke-width:1px;stroke-linecap:butt;stroke-linejoin:miter;stroke-opacity:1">
        <path
           id="path5694"
           style=""
           d="m 361.49347,825.15839 2.93945,0 3.72071,9.92187 3.74023,-9.92187 2.93945,0 0,14.58007 -1.92383,0 0,-12.80273 -3.75976,10 -1.98242,0 -3.75977,-10 0,12.80273 -1.91406,0 0,-14.58007 z" />
        <path
           id="path5696"
           style=""
           d="m 379.27667,838.07831 3.22266,0 0,-11.12305 -3.50586,0.70313 0,-1.79688 3.48633,-0.70312 1.97265,0 0,12.91992 3.22266,0 0,1.66015 -8.39844,0 0,-1.66015 z" />
      </g>
      <g
         transform="translate(-10,84)"
         id="text6122"
         style="font-style:normal;font-weight:normal;font-size:20px;line-height:125%;font-family:sans-serif;letter-spacing:0px;word-spacing:0px;fill:#000000;fill-opacity:1;stroke:none;stroke-width:1px;stroke-linecap:butt;stroke-linejoin:miter;stroke-opacity:1">
        <path
           inkscape:connector-curvature="0"
           id="path3828"
           d="m 422.02939,696.01343 q 0.63476,0.21484 1.23047,0.91797 0.60547,0.70312 1.21093,1.93359 l 2.00196,3.98438 -2.11914,0 -1.86524,-3.74024 q -0.72265,-1.46484 -1.40625,-1.94336 -0.67383,-0.47851 -1.8457,-0.47851 l -2.14844,0 0,6.16211 -1.97265,0 0,-14.58008 4.45312,0 q 2.5,0 3.73047,1.04492 1.23047,1.04492 1.23047,3.1543 0,1.37695 -0.64453,2.28515 -0.63477,0.90821 -1.85547,1.25977 z m -4.94141,-6.12305 0,5.17578 2.48047,0 q 1.42578,0 2.14844,-0.65429 0.73242,-0.66407 0.73242,-1.94336 0,-1.2793 -0.73242,-1.92383 -0.72266,-0.6543 -2.14844,-0.6543 l -2.48047,0 z" />
        <path
           inkscape:connector-curvature="0"
           id="path3830"
           d="m 430.99423,689.89038 0,11.33789 2.38281,0 q 3.01758,0 4.41407,-1.36719 1.40625,-1.36718 1.40625,-4.3164 0,-2.92969 -1.40625,-4.28711 -1.39649,-1.36719 -4.41407,-1.36719 l -2.38281,0 z m -1.97265,-1.62109 4.05273,0 q 4.23828,0 6.2207,1.76758 1.98243,1.75781 1.98243,5.50781 0,3.76953 -1.99219,5.53711 -1.99219,1.76758 -6.21094,1.76758 l -4.05273,0 0,-14.58008 z" />
      </g>
      <g
         transform="translate(-10,84)"
         id="text6126"
         style="font-style:normal;font-weight:normal;font-size:20.48519325px;line-height:125%;font-family:sans-serif;letter-spacing:0px;word-spacing:0px;fill:#000000;fill-opacity:1;stroke:none;stroke-width:1px;stroke-linecap:butt;stroke-linejoin:miter;stroke-opacity:1">
        <path
           inkscape:connector-curvature="0"
           id="path3794"
           style="font-size:20.48519325px"
           d="m 504.94789,766.62355 0,5.61142 2.54065,0 q 1.41035,0 2.18055,-0.73019 0.77019,-0.73018 0.77019,-2.08052 0,-1.34034 -0.77019,-2.07053 -0.7702,-0.73018 -2.18055,-0.73018 l -2.54065,0 z m -2.02051,-1.66042 4.56116,0 q 2.51063,0 3.79096,1.14028 1.29032,1.13029 1.29032,3.32085 0,2.21056 -1.29032,3.34084 -1.28033,1.13029 -3.79096,1.13029 l -2.54065,0 0,6.00152 -2.02051,0 0,-14.93378 z" />
        <path
           inkscape:connector-curvature="0"
           id="path3796"
           style="font-size:20.48519325px"
           d="m 518.83141,769.9844 q -1.48037,0 -2.34059,1.16029 -0.86022,1.15029 -0.86022,3.1608 0,2.01051 0.85022,3.17081 0.86021,1.15029 2.35059,1.15029 1.47037,0 2.33059,-1.16029 0.86022,-1.1603 0.86022,-3.16081 0,-1.9905 -0.86022,-3.15079 -0.86022,-1.1703 -2.33059,-1.1703 z m 0,-1.5604 q 2.40061,0 3.77096,1.5604 1.37035,1.56039 1.37035,4.32109 0,2.7507 -1.37035,4.3211 -1.37035,1.5604 -3.77096,1.5604 -2.41061,0 -3.78096,-1.5604 -1.36034,-1.5704 -1.36034,-4.3211 0,-2.7607 1.36034,-4.32109 1.37035,-1.5604 3.78096,-1.5604 z" />
        <path
           inkscape:connector-curvature="0"
           id="path3798"
           style="font-size:20.48519325px"
           d="m 533.50513,770.41451 q -0.31008,-0.18005 -0.68017,-0.26007 -0.36009,-0.09 -0.8002,-0.09 -1.5604,0 -2.40061,1.02026 -0.83021,1.01025 -0.83021,2.91074 l 0,5.90149 -1.85047,0 0,-11.20284 1.85047,0 0,1.74044 q 0.58014,-1.02026 1.51038,-1.51038 0.93024,-0.50013 2.26057,-0.50013 0.19005,0 0.42011,0.03 0.23006,0.02 0.51013,0.07 l 0.01,1.89048 z" />
        <path
           inkscape:connector-curvature="0"
           id="path3800"
           style="font-size:20.48519325px"
           d="m 537.27609,765.51327 0,3.1808 3.79096,0 0,1.43036 -3.79096,0 0,6.08155 q 0,1.37034 0.37009,1.76044 0.3801,0.3901 1.53039,0.3901 l 1.89048,0 0,1.54039 -1.89048,0 q -2.13054,0 -2.94074,-0.7902 -0.81021,-0.8002 -0.81021,-2.90073 l 0,-6.08155 -1.35034,0 0,-1.43036 1.35034,0 0,-3.1808 1.85047,0 z" />
        <path
           inkscape:connector-curvature="0"
           id="path3802"
           style="font-size:20.48519325px"
           d="m 550.63948,769.02416 0,1.74044 q -0.7802,-0.4001 -1.62041,-0.60016 -0.84022,-0.20005 -1.74045,-0.20005 -1.37034,0 -2.06052,0.42011 -0.68017,0.42011 -0.68017,1.26032 0,0.64016 0.49012,1.01026 0.49013,0.36009 1.9705,0.69017 l 0.63016,0.14004 q 1.9605,0.4201 2.78071,1.1903 0.83021,0.76019 0.83021,2.13054 0,1.56039 -1.24032,2.47062 -1.23031,0.91024 -3.39086,0.91024 -0.90022,0 -1.88047,-0.18005 -0.97025,-0.17004 -2.05052,-0.52013 l 0,-1.90048 q 1.02026,0.53013 2.01051,0.8002 0.99025,0.26006 1.96049,0.26006 1.30033,0 2.00051,-0.44011 0.70018,-0.45011 0.70018,-1.26032 0,-0.75019 -0.51013,-1.15029 -0.50013,-0.4001 -2.21056,-0.77019 l -0.64016,-0.15004 q -1.71044,-0.36009 -2.47063,-1.10028 -0.76019,-0.75019 -0.76019,-2.05052 0,-1.5804 1.12028,-2.44062 1.12029,-0.86022 3.18081,-0.86022 1.02026,0 1.92049,0.15004 0.90022,0.15004 1.66042,0.45012 z" />
        <path
           inkscape:connector-curvature="0"
           id="path3804"
           style="font-size:20.48519325px"
           d="m 565.28319,766.29346 q -1.5604,0 -2.3506,1.54039 -0.7802,1.53039 -0.7802,4.61117 0,3.07078 0.7802,4.61117 0.7902,1.53039 2.3506,1.53039 1.5704,0 2.35059,-1.53039 0.7902,-1.54039 0.7902,-4.61117 0,-3.08078 -0.7902,-4.61117 -0.78019,-1.54039 -2.35059,-1.54039 z m 0,-1.6004 q 2.51064,0 3.83097,1.9905 1.33034,1.9805 1.33034,5.76146 0,3.77096 -1.33034,5.76146 -1.32033,1.98051 -3.83097,1.98051 -2.51064,0 -3.84098,-1.98051 -1.32033,-1.9905 -1.32033,-5.76146 0,-3.78096 1.32033,-5.76146 1.33034,-1.9905 3.84098,-1.9905 z" />
        <path
           inkscape:connector-curvature="0"
           id="path3806"
           style="font-size:20.48519325px"
           d="m 579.33675,773.46528 5.39136,0 0,1.64042 -5.39136,0 0,-1.64042 z" />
        <path
           inkscape:connector-curvature="0"
           id="path3808"
           style="font-size:20.48519325px"
           d="m 596.19102,778.19648 7.05179,0 0,1.70043 -9.4824,0 0,-1.70043 q 1.15029,-1.1903 3.13079,-3.19081 1.9905,-2.01051 2.50063,-2.59066 0.97025,-1.09027 1.35035,-1.84046 0.39009,-0.76019 0.39009,-1.49038 0,-1.1903 -0.84021,-1.94049 -0.83021,-0.75019 -2.17055,-0.75019 -0.95024,0 -2.01051,0.33008 -1.05026,0.33009 -2.25057,1.00026 l 0,-2.04052 q 1.22031,-0.49013 2.28058,-0.74019 1.06027,-0.25006 1.94049,-0.25006 2.32059,0 3.70094,1.16029 1.38035,1.1603 1.38035,3.10079 0,0.92023 -0.35009,1.75044 -0.34009,0.82021 -1.25032,1.94049 -0.25006,0.29008 -1.5904,1.68043 -1.34034,1.38035 -3.78096,3.87098 z" />
        <path
           inkscape:connector-curvature="0"
           id="path3810"
           style="font-size:20.48519325px"
           d="m 607.51389,764.96313 7.93201,0 0,1.70043 -6.08154,0 0,3.66092 q 0.44011,-0.15003 0.88022,-0.22005 0.44011,-0.08 0.88023,-0.08 2.50063,0 3.961,1.37035 1.46037,1.37034 1.46037,3.71094 0,2.41061 -1.50038,3.75095 -1.50038,1.33034 -4.23107,1.33034 -0.94024,0 -1.92049,-0.16005 -0.97025,-0.16004 -2.01051,-0.48012 l 0,-2.03051 q 0.90023,0.49012 1.86047,0.73018 0.96025,0.24006 2.03052,0.24006 1.73044,0 2.74069,-0.91023 1.01026,-0.91023 1.01026,-2.47062 0,-1.5604 -1.01026,-2.47063 -1.01025,-0.91023 -2.74069,-0.91023 -0.81021,0 -1.62041,0.18005 -0.80021,0.18004 -1.64042,0.56014 l 0,-7.5019 z" />
        <path
           inkscape:connector-curvature="0"
           id="path3812"
           style="font-size:20.48519325px"
           d="m 620.5572,764.96313 7.93201,0 0,1.70043 -6.08154,0 0,3.66092 q 0.44011,-0.15003 0.88022,-0.22005 0.44012,-0.08 0.88023,-0.08 2.50063,0 3.961,1.37035 1.46037,1.37034 1.46037,3.71094 0,2.41061 -1.50038,3.75095 -1.50038,1.33034 -4.23107,1.33034 -0.94024,0 -1.92049,-0.16005 -0.97024,-0.16004 -2.01051,-0.48012 l 0,-2.03051 q 0.90023,0.49012 1.86047,0.73018 0.96025,0.24006 2.03052,0.24006 1.73044,0 2.74069,-0.91023 1.01026,-0.91023 1.01026,-2.47062 0,-1.5604 -1.01026,-2.47063 -1.01025,-0.91023 -2.74069,-0.91023 -0.81021,0 -1.62041,0.18005 -0.80021,0.18004 -1.64042,0.56014 l 0,-7.5019 z" />
      </g>
      <path
         sodipodi:nodetypes="cc"
         inkscape:connector-curvature="0"
         id="path6130"
         d="m 526.37753,871.83346 0,92.42896"
         style="fill:none;fill-rule:evenodd;stroke:#000000;stroke-width:2;stroke-linecap:butt;stroke-linejoin:miter;stroke-miterlimit:4;stroke-dasharray:none;stroke-opacity:1;marker-start:url(#marker5862);marker-end:url(#marker6256)" />
      <path
         sodipodi:nodetypes="cc"
         style="fill:none;fill-rule:evenodd;stroke:#000000;stroke-width:2;stroke-linecap:butt;stroke-linejoin:miter;stroke-miterlimit:4;stroke-dasharray:none;stroke-opacity:1;marker-end:url(#marker6376)"
         d="m 591.2032,965.0723 0,-92.07541"
         id="path6374"
         inkscape:connector-curvature="0" />
      <path
         inkscape:connector-curvature="0"
         id="path7756"
         d="m 403.15239,769.67683 27.27412,0"
         style="fill:none;fill-rule:evenodd;stroke:#000000;stroke-width:1px;stroke-linecap:butt;stroke-linejoin:miter;stroke-opacity:1" />
      <path
         inkscape:connector-curvature="0"
         id="path7758"
         d="m 358.2006,795.9408 47.98225,0"
         style="fill:none;fill-rule:evenodd;stroke:#000000;stroke-width:1px;stroke-linecap:butt;stroke-linejoin:miter;stroke-opacity:1" />
      <path
         inkscape:connector-curvature="0"
         id="path7764"
         d="m 173.34269,832.44842 177.78685,0"
         style="fill:none;fill-rule:evenodd;stroke:#000000;stroke-width:2;stroke-linecap:butt;stroke-linejoin:miter;stroke-miterlimit:4;stroke-dasharray:none;stroke-opacity:1;marker-end:url(#marker7772)" />
      <g
         transform="translate(-10,84)"
         id="text7902"
         style="font-style:normal;font-weight:normal;font-size:20px;line-height:125%;font-family:sans-serif;letter-spacing:0px;word-spacing:0px;fill:#000000;fill-opacity:1;stroke:none;stroke-width:1px;stroke-linecap:butt;stroke-linejoin:miter;stroke-opacity:1">
        <path
           inkscape:connector-curvature="0"
           id="path3833"
           d="m 207.0645,728.29218 2.93945,0 3.72071,9.92187 3.74023,-9.92187 2.93945,0 0,14.58007 -1.92383,0 0,-12.80273 -3.75976,10 -1.98242,0 -3.75977,-10 0,12.80273 -1.91406,0 0,-14.58007 z" />
        <path
           inkscape:connector-curvature="0"
           id="path3835"
           d="m 224.8477,741.2121 3.22266,0 0,-11.12305 -3.50586,0.70313 0,-1.79688 3.48633,-0.70312 1.97265,0 0,12.91992 3.22266,0 0,1.66015 -8.39844,0 0,-1.66015 z" />
      </g>
      <path
         style="fill:none;fill-rule:evenodd;stroke:#000000;stroke-width:1.04730272px;stroke-linecap:butt;stroke-linejoin:miter;stroke-opacity:1"
         d="m 360.71753,822.65839 25.48351,0"
         id="path7906"
         inkscape:connector-curvature="0" />
      <path
         inkscape:connector-curvature="0"
         id="path7908"
         d="m 197.08127,809.21492 23.23351,0"
         style="fill:none;fill-rule:evenodd;stroke:#000000;stroke-width:1px;stroke-linecap:butt;stroke-linejoin:miter;stroke-opacity:1" />
      <path
         sodipodi:nodetypes="ccccccccc"
         inkscape:connector-curvature="0"
         id="path9713"
         d="m 529.12058,582.31207 0,141.11202 -15.36389,0 27.49976,38.30021 27.50111,-38.30021 -15.3639,0 0,-141.11202 -12.13721,0 z"
         style="fill:#ffffff;fill-opacity:1;fill-rule:evenodd;stroke:#000000;stroke-width:0.91235453px;stroke-linecap:butt;stroke-linejoin:miter;stroke-opacity:1" />
      <path
         style="fill:#ffffff;fill-opacity:1;fill-rule:evenodd;stroke:#000000;stroke-width:1.16147542px;stroke-linecap:butt;stroke-linejoin:miter;stroke-opacity:1"
         d="m 528.51102,633.475 -300.57425,0 c 0,0 0.71503,-6.69038 0,-14.14774 l -56.29146,24.03579 56.29146,24.03689 0,-14.14774 300.57425,0 0,-9.88915 z"
         id="path9718"
         inkscape:connector-curvature="0"
         sodipodi:nodetypes="ccccccccc" />
      <rect
         y="634.05719"
         x="522.49664"
         height="18.610687"
         width="12.441594"
         id="rect9747"
         style="opacity:1;fill:#ffffff;fill-opacity:1;stroke:none;stroke-width:0.5;stroke-linecap:square;stroke-miterlimit:4;stroke-dasharray:none;stroke-dashoffset:0;stroke-opacity:1" />
      <g
         id="text9749"
         style="font-style:normal;font-weight:normal;font-size:19.9363327px;line-height:125%;font-family:sans-serif;letter-spacing:0px;word-spacing:0px;fill:#000000;fill-opacity:1;stroke:none;stroke-width:1px;stroke-linecap:butt;stroke-linejoin:miter;stroke-opacity:1"
         transform="matrix(0.96269452,0,0,1.0387511,-10,84)">
        <path
           inkscape:connector-curvature="0"
           id="path3847"
           style="font-size:26.58177757px"
           d="m 386.6049,508.37475 0,15.06906 3.16697,0 q 4.01063,0 5.86668,-1.81711 1.86903,-1.81712 1.86903,-5.73689 0,-3.89382 -1.86903,-5.69795 -1.85605,-1.81711 -5.86668,-1.81711 l -3.16697,0 z m -2.62184,-2.15458 5.38645,0 q 5.63305,0 8.26786,2.34927 2.63482,2.33629 2.63482,7.32037 0,5.01004 -2.6478,7.35931 -2.64779,2.34927 -8.25488,2.34927 l -5.38645,0 0,-19.37822 z" />
        <path
           inkscape:connector-curvature="0"
           id="path3849"
           style="font-size:26.58177757px"
           d="m 410.94124,518.291 q -2.8944,0 -4.01063,0.66194 -1.11622,0.66195 -1.11622,2.25842 0,1.27198 0.83068,2.02478 0.84366,0.73983 2.28437,0.73983 1.98584,0 3.17995,-1.40178 1.20708,-1.41475 1.20708,-3.75104 l 0,-0.53215 -2.37523,0 z m 4.76344,-0.98644 0,8.29383 -2.38821,0 0,-2.2065 q -0.8177,1.3239 -2.03776,1.95989 -1.22007,0.62301 -2.98526,0.62301 -2.23246,0 -3.55635,-1.24602 -1.31092,-1.259 -1.31092,-3.36166 0,-2.4531 1.6354,-3.69912 1.64838,-1.24603 4.90621,-1.24603 l 3.34868,0 0,-0.23362 q 0,-1.64839 -1.09027,-2.54396 -1.07729,-0.90856 -3.03717,-0.90856 -1.24602,0 -2.42715,0.29853 -1.18112,0.29852 -2.27139,0.89557 l 0,-2.20649 q 1.31092,-0.5062 2.54396,-0.75281 1.23304,-0.25958 2.40118,-0.25958 3.15399,0 4.71152,1.6354 1.55753,1.6354 1.55753,4.95812 z" />
        <path
           inkscape:connector-curvature="0"
           id="path3851"
           style="font-size:26.58177757px"
           d="m 422.99909,506.93404 0,4.12744 4.91919,0 0,1.85605 -4.91919,0 0,7.89147 q 0,1.77817 0.48024,2.28437 0.49321,0.50619 1.98584,0.50619 l 2.45311,0 0,1.99883 -2.45311,0 q -2.76461,0 -3.81594,-1.02537 -1.05133,-1.03835 -1.05133,-3.76402 l 0,-7.89147 -1.75221,0 0,-1.85605 1.75221,0 0,-4.12744 2.40119,0 z" />
        <path
           inkscape:connector-curvature="0"
           id="path3853"
           style="font-size:26.58177757px"
           d="m 437.67877,518.291 q -2.8944,0 -4.01063,0.66194 -1.11622,0.66195 -1.11622,2.25842 0,1.27198 0.83068,2.02478 0.84366,0.73983 2.28437,0.73983 1.98584,0 3.17995,-1.40178 1.20708,-1.41475 1.20708,-3.75104 l 0,-0.53215 -2.37523,0 z m 4.76344,-0.98644 0,8.29383 -2.38821,0 0,-2.2065 q -0.8177,1.3239 -2.03776,1.95989 -1.22007,0.62301 -2.98526,0.62301 -2.23246,0 -3.55635,-1.24602 -1.31092,-1.259 -1.31092,-3.36166 0,-2.4531 1.6354,-3.69912 1.64838,-1.24603 4.90621,-1.24603 l 3.34868,0 0,-0.23362 q 0,-1.64839 -1.09027,-2.54396 -1.07729,-0.90856 -3.03717,-0.90856 -1.24602,0 -2.42715,0.29853 -1.18112,0.29852 -2.27139,0.89557 l 0,-2.20649 q 1.31092,-0.5062 2.54396,-0.75281 1.23304,-0.25958 2.40118,-0.25958 3.15399,0 4.71152,1.6354 1.55753,1.6354 1.55753,4.95812 z" />
        <path
           inkscape:connector-curvature="0"
           id="path3855"
           style="font-size:26.58177757px"
           d="m 457.8098,518.34291 q 0,-2.63481 -1.09027,-4.12744 -1.07729,-1.50561 -2.97228,-1.50561 -1.89499,0 -2.98526,1.50561 -1.07729,1.49263 -1.07729,4.12744 0,2.63482 1.07729,4.14043 1.09027,1.49263 2.98526,1.49263 1.89499,0 2.97228,-1.49263 1.09027,-1.50561 1.09027,-4.14043 z m -8.1251,-5.07494 q 0.75281,-1.29793 1.89499,-1.92094 1.15517,-0.63599 2.75163,-0.63599 2.6478,0 4.29618,2.10266 1.66136,2.10266 1.66136,5.52921 0,3.42656 -1.66136,5.52922 -1.64838,2.10266 -4.29618,2.10266 -1.59646,0 -2.75163,-0.62301 -1.14218,-0.63599 -1.89499,-1.93393 l 0,2.18054 -2.40118,0 0,-20.19592 2.40118,0 0,7.8655 z" />
        <path
           inkscape:connector-curvature="0"
           id="path3857"
           style="font-size:26.58177757px"
           d="m 464.00097,519.8615 0,-8.80002 2.3882,0 0,8.70917 q 0,2.06372 0.80472,3.10207 0.80473,1.02537 2.41417,1.02537 1.93393,0 3.05016,-1.23304 1.1292,-1.23304 1.1292,-3.36166 l 0,-8.24191 2.38821,0 0,14.53691 -2.38821,0 0,-2.23246 q -0.86962,1.3239 -2.02478,1.97287 -1.14219,0.63599 -2.66078,0.63599 -2.50502,0 -3.80296,-1.55753 -1.29793,-1.55752 -1.29793,-4.55576 z m 6.00945,-9.15046 0,0 z" />
        <path
           inkscape:connector-curvature="0"
           id="path3859"
           style="font-size:26.58177757px"
           d="m 490.38805,511.4898 0,2.25841 q -1.01239,-0.51917 -2.10266,-0.77876 -1.09026,-0.25959 -2.25841,-0.25959 -1.77817,0 -2.67375,0.54513 -0.8826,0.54514 -0.8826,1.63541 0,0.83068 0.63599,1.31091 0.63599,0.46726 2.55694,0.89558 l 0.8177,0.18171 q 2.54396,0.54514 3.60827,1.54455 1.07729,0.98643 1.07729,2.76461 0,2.02478 -1.60945,3.20591 -1.59646,1.18112 -4.40001,1.18112 -1.16814,0 -2.44012,-0.23363 -1.259,-0.22065 -2.66078,-0.67493 l 0,-2.46608 q 1.3239,0.68791 2.60886,1.03835 1.28496,0.33747 2.54396,0.33747 1.68732,0 2.59588,-0.5711 0.90855,-0.58407 0.90855,-1.6354 0,-0.97345 -0.66194,-1.49263 -0.64897,-0.51917 -2.86845,-0.99941 l -0.83068,-0.19469 q -2.21947,-0.46726 -3.20591,-1.42773 -0.98643,-0.97346 -0.98643,-2.66078 0,-2.05074 1.45369,-3.16697 1.45369,-1.11622 4.12744,-1.11622 1.3239,0 2.49205,0.19469 1.16814,0.19469 2.15457,0.58407 z" />
        <path
           inkscape:connector-curvature="0"
           id="path3861"
           style="font-size:26.58177757px"
           d="m 504.25003,511.4898 0,2.25841 q -1.01239,-0.51917 -2.10266,-0.77876 -1.09027,-0.25959 -2.25841,-0.25959 -1.77818,0 -2.67376,0.54513 -0.88259,0.54514 -0.88259,1.63541 0,0.83068 0.63599,1.31091 0.63599,0.46726 2.55694,0.89558 l 0.8177,0.18171 q 2.54396,0.54514 3.60826,1.54455 1.07729,0.98643 1.07729,2.76461 0,2.02478 -1.60944,3.20591 -1.59646,1.18112 -4.40001,1.18112 -1.16815,0 -2.44012,-0.23363 -1.25901,-0.22065 -2.66078,-0.67493 l 0,-2.46608 q 1.3239,0.68791 2.60886,1.03835 1.28496,0.33747 2.54396,0.33747 1.68732,0 2.59587,-0.5711 0.90856,-0.58407 0.90856,-1.6354 0,-0.97345 -0.66195,-1.49263 -0.64897,-0.51917 -2.86844,-0.99941 l -0.83068,-0.19469 q -2.21948,-0.46726 -3.20591,-1.42773 -0.98643,-0.97346 -0.98643,-2.66078 0,-2.05074 1.45369,-3.16697 1.45369,-1.11622 4.12744,-1.11622 1.3239,0 2.49204,0.19469 1.16815,0.19469 2.15458,0.58407 z" />
      </g>
      <g
         id="text9749-3"
         style="font-style:normal;font-weight:normal;font-size:17.6247921px;line-height:125%;font-family:sans-serif;letter-spacing:0px;word-spacing:0px;fill:#000000;fill-opacity:1;stroke:none;stroke-width:1px;stroke-linecap:butt;stroke-linejoin:miter;stroke-opacity:1"
         transform="matrix(0.85107383,0,0,1.1749862,-10,84)">
        <path
           inkscape:connector-curvature="0"
           id="path3838"
           style="font-size:23.49972343px"
           d="m 244.06385,529.4366 2.31784,0 0,17.13139 -2.31784,0 0,-17.13139 z" />
        <path
           inkscape:connector-curvature="0"
           id="path3840"
           style="font-size:23.49972343px"
           d="m 257.94796,531.00861 q -2.52438,0 -4.01607,1.88181 -1.4802,1.88181 -1.4802,5.12909 0,3.2358 1.4802,5.11762 1.49169,1.88181 4.01607,1.88181 2.52438,0 3.99312,-1.88181 1.4802,-1.88182 1.4802,-5.11762 0,-3.24728 -1.4802,-5.12909 -1.46874,-1.88181 -3.99312,-1.88181 z m 0,-1.88182 q 3.60299,0 5.76019,2.42112 2.1572,2.40964 2.1572,6.4716 0,4.05049 -2.1572,6.4716 -2.1572,2.40964 -5.76019,2.40964 -3.61446,0 -5.78313,-2.40964 -2.15721,-2.40964 -2.15721,-6.4716 0,-4.06196 2.15721,-6.4716 2.16867,-2.42112 5.78313,-2.42112 z" />
        <path
           inkscape:connector-curvature="0"
           id="path3842"
           style="font-size:23.49972343px"
           d="m 277.61521,538.53586 q 0.74584,0.25244 1.44578,1.0786 0.71142,0.82616 1.42284,2.27195 l 2.35226,4.68158 -2.48996,0 -2.19162,-4.39472 q -0.84911,-1.72117 -1.65233,-2.28342 -0.79173,-0.56225 -2.16867,-0.56225 l -2.52439,0 0,7.24039 -2.31784,0 0,-17.13139 5.23236,0 q 2.93747,0 4.38325,1.22777 1.44578,1.22777 1.44578,3.70626 0,1.6179 -0.75731,2.68502 -0.74584,1.06713 -2.18015,1.48021 z m -5.80609,-7.19449 0,6.08147 2.91452,0 q 1.67527,0 2.52439,-0.76879 0.86058,-0.78027 0.86058,-2.28342 0,-1.50316 -0.86058,-2.26047 -0.84912,-0.76879 -2.52439,-0.76879 l -2.91452,0 z" />
        <path
           inkscape:connector-curvature="0"
           id="path3844"
           style="font-size:23.49972343px"
           d="m 292.78446,531.00861 q -2.52438,0 -4.01606,1.88181 -1.48021,1.88181 -1.48021,5.12909 0,3.2358 1.48021,5.11762 1.49168,1.88181 4.01606,1.88181 2.52439,0 3.99312,-1.88181 1.48021,-1.88182 1.48021,-5.11762 0,-3.24728 -1.48021,-5.12909 -1.46873,-1.88181 -3.99312,-1.88181 z m 3.24728,15.24957 3.05221,3.33907 -2.79977,0 -2.53586,-2.74239 q -0.37866,0.0229 -0.5852,0.0344 -0.19506,0.0115 -0.37866,0.0115 -3.61446,0 -5.78313,-2.40964 -2.1572,-2.42111 -2.1572,-6.4716 0,-4.06196 2.1572,-6.4716 2.16867,-2.42112 5.78313,-2.42112 3.60299,0 5.76019,2.42112 2.1572,2.40964 2.1572,6.4716 0,2.98336 -1.20482,5.10614 -1.19334,2.12278 -3.46529,3.13253 z" />
      </g>
      <path
         inkscape:connector-curvature="0"
         id="path9788"
         d="m 195.88939,701.61286 46.3155,0"
         style="fill:none;fill-rule:evenodd;stroke:#000000;stroke-width:1px;stroke-linecap:butt;stroke-linejoin:miter;stroke-opacity:1" />
      <g
         transform="translate(-10,84)"
         id="text9802"
         style="font-style:normal;font-weight:normal;font-size:15px;line-height:125%;font-family:sans-serif;letter-spacing:0px;word-spacing:0px;fill:#000000;fill-opacity:1;stroke:none;stroke-width:1px;stroke-linecap:butt;stroke-linejoin:miter;stroke-opacity:1">
        <path
           inkscape:connector-curvature="0"
           id="path3815"
           style="font-size:25px"
           d="m 477.1535,722.52313 15.41748,0 0,2.0752 -6.46972,0 0,16.1499 -2.47803,0 0,-16.1499 -6.46973,0 0,-2.0752 z" />
        <path
           inkscape:connector-curvature="0"
           id="path3817"
           style="font-size:25px"
           d="m 494.96356,722.52313 2.46582,0 0,18.2251 -2.46582,0 0,-18.2251 z" />
        <path
           inkscape:connector-curvature="0"
           id="path3819"
           style="font-size:25px"
           d="m 516.3869,724.95233 -3.34472,9.06983 6.70166,0 -3.35694,-9.06983 z m -1.3916,-2.4292 2.79541,0 6.9458,18.2251 -2.56348,0 -1.66015,-4.67529 -8.21533,0 -1.66016,4.67529 -2.6001,0 6.95801,-18.2251 z" />
        <path
           inkscape:connector-curvature="0"
           id="path3821"
           style="font-size:25px"
           d="m 538.31073,723.12128 0,2.40478 q -1.40381,-0.67138 -2.64893,-1.00097 -1.24511,-0.32959 -2.40478,-0.32959 -2.01416,0 -3.11279,0.78125 -1.08643,0.78125 -1.08643,2.22168 0,1.20849 0.72022,1.83105 0.73242,0.61035 2.75878,0.98877 l 1.48926,0.30518 q 2.75879,0.5249 4.06494,1.85546 1.31836,1.31836 1.31836,3.54004 0,2.64893 -1.78222,4.01612 -1.77002,1.36718 -5.2002,1.36718 -1.29394,0 -2.75879,-0.29296 -1.45263,-0.29297 -3.01513,-0.8667 l 0,-2.53907 q 1.50146,0.84229 2.94189,1.26953 1.44043,0.42725 2.83203,0.42725 2.11182,0 3.25928,-0.83008 1.14746,-0.83008 1.14746,-2.36816 0,-1.34277 -0.83008,-2.09961 -0.81787,-0.75684 -2.69775,-1.13525 l -1.50147,-0.29297 q -2.75879,-0.54932 -3.9917,-1.72119 -1.23291,-1.17188 -1.23291,-3.25928 0,-2.41699 1.69678,-3.8086 1.70898,-1.3916 4.69971,-1.3916 1.28174,0 2.6123,0.23194 1.33057,0.23193 2.72217,0.6958 z" />
        <path
           inkscape:connector-curvature="0"
           id="path3823"
           style="font-size:25px"
           d="m 543.25458,722.52313 2.46582,0 0,18.2251 -2.46582,0 0,-18.2251 z" />
        <path
           inkscape:connector-curvature="0"
           id="path3825"
           style="font-size:25px"
           d="m 564.27509,723.92694 0,2.6001 q -1.24512,-1.15967 -2.66114,-1.7334 -1.40381,-0.57373 -2.99072,-0.57373 -3.125,0 -4.78516,1.9165 -1.66015,1.9043 -1.66015,5.51758 0,3.60108 1.66015,5.51758 1.66016,1.9043 4.78516,1.9043 1.58691,0 2.99072,-0.57373 1.41602,-0.57373 2.66114,-1.7334 l 0,2.57568 q -1.29395,0.87891 -2.74659,1.31836 -1.44043,0.43945 -3.05175,0.43945 -4.13819,0 -6.51856,-2.52685 -2.38037,-2.53906 -2.38037,-6.92139 0,-4.39453 2.38037,-6.92139 2.38037,-2.53906 6.51856,-2.53906 1.63574,0 3.07617,0.43946 1.45263,0.42724 2.72217,1.29394 z" />
      </g>
      <g
         transform="translate(-10,84)"
         id="text9810"
         style="font-style:normal;font-weight:normal;font-size:22.5px;line-height:125%;font-family:sans-serif;letter-spacing:0px;word-spacing:0px;baseline-shift:baseline;fill:#000000;fill-opacity:1;stroke:none;stroke-width:1px;stroke-linecap:butt;stroke-linejoin:miter;stroke-opacity:1">
        <path
           inkscape:connector-curvature="0"
           id="path3898"
           style="font-size:25px"
           d="m 220.50391,234.56631 -3.34473,9.06983 6.70166,0 -3.35693,-9.06983 z m -1.39161,-2.42919 2.79541,0 6.94581,18.22509 -2.56348,0 -1.66016,-4.67529 -8.21533,0 -1.66016,4.67529 -2.60009,0 6.958,-18.22509 z" />
        <path
           inkscape:connector-curvature="0"
           id="path3900"
           style="font-size:25px"
           d="m 239.96191,238.76553 0,-7.39746 2.2461,0 0,18.99414 -2.2461,0 0,-2.05078 q -0.708,1.22071 -1.79443,1.81885 -1.07422,0.58594 -2.58789,0.58594 -2.47803,0 -4.04053,-1.97754 -1.55029,-1.97754 -1.55029,-5.2002 0,-3.22265 1.55029,-5.20019 1.5625,-1.97754 4.04053,-1.97754 1.51367,0 2.58789,0.59814 1.08643,0.58594 1.79443,1.80664 z m -7.6538,4.77295 q 0,2.47803 1.01318,3.89405 1.02539,1.4038 2.80762,1.4038 1.78222,0 2.80761,-1.4038 1.02539,-1.41602 1.02539,-3.89405 0,-2.47802 -1.02539,-3.88183 -1.02539,-1.41602 -2.80761,-1.41602 -1.78223,0 -2.80762,1.41602 -1.01318,1.40381 -1.01318,3.88183 z" />
        <path
           inkscape:connector-curvature="0"
           id="path3902"
           style="font-size:25px"
           d="m 254.75684,238.78995 q -0.37842,-0.21973 -0.83008,-0.31739 -0.43946,-0.10986 -0.97656,-0.10986 -1.9043,0 -2.92969,1.24512 -1.01319,1.23291 -1.01319,3.55224 l 0,7.20215 -2.2583,0 0,-13.67187 2.2583,0 0,2.12402 q 0.70801,-1.24512 1.84327,-1.84326 1.13525,-0.61035 2.75878,-0.61035 0.23194,0 0.5127,0.0366 0.28076,0.0244 0.62256,0.0855 l 0.0122,2.30713 z" />
        <path
           inkscape:connector-curvature="0"
           id="path3904"
           style="font-size:25px"
           d="m 268.29443,242.96475 0,1.09864 -10.32714,0 q 0.14648,2.31933 1.3916,3.54003 1.25732,1.2085 3.49121,1.2085 1.29394,0 2.50244,-0.31738 1.2207,-0.31739 2.41699,-0.95215 l 0,2.12402 q -1.20849,0.5127 -2.47803,0.78125 -1.26953,0.26856 -2.57568,0.26856 -3.27148,0 -5.18799,-1.9043 -1.90429,-1.9043 -1.90429,-5.15137 0,-3.35693 1.80664,-5.32226 1.81884,-1.97754 4.89502,-1.97754 2.75878,0 4.35791,1.78222 1.61132,1.77002 1.61132,4.82178 z m -2.24609,-0.65918 q -0.0244,-1.84326 -1.0376,-2.94189 -1.00097,-1.09863 -2.66113,-1.09863 -1.87988,0 -3.01514,1.06201 -1.12304,1.06201 -1.29394,2.99072 l 8.00781,-0.0122 z" />
        <path
           inkscape:connector-curvature="0"
           id="path3906"
           style="font-size:25px"
           d="m 280.69678,237.09317 0,2.12402 q -0.95215,-0.48828 -1.97754,-0.73242 -1.02539,-0.24414 -2.12403,-0.24414 -1.67236,0 -2.51464,0.5127 -0.83008,0.51269 -0.83008,1.53808 0,0.78125 0.59814,1.23291 0.59815,0.43946 2.40479,0.84229 l 0.76904,0.1709 q 2.39258,0.51269 3.39356,1.45263 1.01318,0.92774 1.01318,2.6001 0,1.9043 -1.51367,3.01514 -1.50147,1.11084 -4.13819,1.11084 -1.09863,0 -2.29492,-0.21973 -1.18408,-0.20752 -2.50244,-0.63477 l 0,-2.31933 q 1.24512,0.64697 2.45361,0.97656 1.2085,0.31738 2.39258,0.31738 1.58692,0 2.44141,-0.53711 0.85449,-0.54931 0.85449,-1.53808 0,-0.91553 -0.62256,-1.40381 -0.61035,-0.48828 -2.69775,-0.93994 l -0.78125,-0.18311 q -2.0874,-0.43945 -3.01514,-1.34277 -0.92773,-0.91553 -0.92773,-2.50244 0,-1.92871 1.36718,-2.97852 1.36719,-1.0498 3.88184,-1.0498 1.24512,0 2.34375,0.1831 1.09863,0.18311 2.02637,0.54932 z" />
        <path
           inkscape:connector-curvature="0"
           id="path3908"
           style="font-size:25px"
           d="m 293.73389,237.09317 0,2.12402 q -0.95215,-0.48828 -1.97754,-0.73242 -1.02539,-0.24414 -2.12403,-0.24414 -1.67236,0 -2.51464,0.5127 -0.83008,0.51269 -0.83008,1.53808 0,0.78125 0.59814,1.23291 0.59815,0.43946 2.40479,0.84229 l 0.76904,0.1709 q 2.39258,0.51269 3.39355,1.45263 1.01319,0.92774 1.01319,2.6001 0,1.9043 -1.51367,3.01514 -1.50147,1.11084 -4.13819,1.11084 -1.09863,0 -2.29492,-0.21973 -1.18408,-0.20752 -2.50244,-0.63477 l 0,-2.31933 q 1.24512,0.64697 2.45361,0.97656 1.2085,0.31738 2.39258,0.31738 1.58692,0 2.44141,-0.53711 0.85449,-0.54931 0.85449,-1.53808 0,-0.91553 -0.62256,-1.40381 -0.61035,-0.48828 -2.69775,-0.93994 l -0.78125,-0.18311 q -2.08741,-0.43945 -3.01514,-1.34277 -0.92773,-0.91553 -0.92773,-2.50244 0,-1.92871 1.36718,-2.97852 1.36719,-1.0498 3.88184,-1.0498 1.24512,0 2.34375,0.1831 1.09863,0.18311 2.02637,0.54932 z" />
        <path
           inkscape:connector-curvature="0"
           id="path3910"
           style="font-size:25px"
           d="m 307.86963,243.53848 q 0,-2.47802 -1.02539,-3.88183 -1.01319,-1.41602 -2.79541,-1.41602 -1.78223,0 -2.80762,1.41602 -1.01318,1.40381 -1.01318,3.88183 0,2.47803 1.01318,3.89405 1.02539,1.4038 2.80762,1.4038 1.78222,0 2.79541,-1.4038 1.02539,-1.41602 1.02539,-3.89405 z m -7.6416,-4.77295 q 0.70801,-1.2207 1.78222,-1.80664 1.08643,-0.59814 2.58789,-0.59814 2.49024,0 4.04053,1.97754 1.5625,1.97754 1.5625,5.20019 0,3.22266 -1.5625,5.2002 -1.55029,1.97754 -4.04053,1.97754 -1.50146,0 -2.58789,-0.58594 -1.07421,-0.59814 -1.78222,-1.81885 l 0,2.05078 -2.2583,0 0,-18.99414 2.2583,0 0,7.39746 z" />
        <path
           inkscape:connector-curvature="0"
           id="path3912"
           style="font-size:25px"
           d="m 313.69238,244.96671 0,-8.27637 2.2461,0 0,8.19092 q 0,1.94091 0.75683,2.91748 0.75684,0.96435 2.27051,0.96435 1.81885,0 2.86865,-1.15967 1.06201,-1.15966 1.06201,-3.16162 l 0,-7.75146 2.2461,0 0,13.67187 -2.2461,0 0,-2.09961 q -0.81787,1.24512 -1.90429,1.85547 -1.07422,0.59815 -2.50244,0.59815 -2.35596,0 -3.57666,-1.46485 -1.22071,-1.46484 -1.22071,-4.28466 z m 5.65186,-8.60596 0,0 z" />
        <path
           inkscape:connector-curvature="0"
           id="path3914"
           style="font-size:25px"
           d="m 338.50928,237.09317 0,2.12402 q -0.95215,-0.48828 -1.97754,-0.73242 -1.02539,-0.24414 -2.12403,-0.24414 -1.67236,0 -2.51464,0.5127 -0.83008,0.51269 -0.83008,1.53808 0,0.78125 0.59814,1.23291 0.59815,0.43946 2.40479,0.84229 l 0.76904,0.1709 q 2.39258,0.51269 3.39356,1.45263 1.01318,0.92774 1.01318,2.6001 0,1.9043 -1.51367,3.01514 -1.50147,1.11084 -4.13819,1.11084 -1.09863,0 -2.29492,-0.21973 -1.18408,-0.20752 -2.50244,-0.63477 l 0,-2.31933 q 1.24512,0.64697 2.45361,0.97656 1.2085,0.31738 2.39258,0.31738 1.58692,0 2.44141,-0.53711 0.85449,-0.54931 0.85449,-1.53808 0,-0.91553 -0.62256,-1.40381 -0.61035,-0.48828 -2.69775,-0.93994 l -0.78125,-0.18311 q -2.0874,-0.43945 -3.01514,-1.34277 -0.92773,-0.91553 -0.92773,-2.50244 0,-1.92871 1.36718,-2.97852 1.36719,-1.0498 3.88184,-1.0498 1.24512,0 2.34375,0.1831 1.09863,0.18311 2.02637,0.54932 z" />
        <path
           inkscape:connector-curvature="0"
           id="path3916"
           style="font-size:25px"
           d="m 351.54639,237.09317 0,2.12402 q -0.95215,-0.48828 -1.97754,-0.73242 -1.02539,-0.24414 -2.12403,-0.24414 -1.67236,0 -2.51464,0.5127 -0.83008,0.51269 -0.83008,1.53808 0,0.78125 0.59814,1.23291 0.59815,0.43946 2.40479,0.84229 l 0.76904,0.1709 q 2.39258,0.51269 3.39355,1.45263 1.01319,0.92774 1.01319,2.6001 0,1.9043 -1.51367,3.01514 -1.50147,1.11084 -4.13819,1.11084 -1.09863,0 -2.29492,-0.21973 -1.18408,-0.20752 -2.50244,-0.63477 l 0,-2.31933 q 1.24512,0.64697 2.45361,0.97656 1.2085,0.31738 2.39258,0.31738 1.58692,0 2.44141,-0.53711 0.85449,-0.54931 0.85449,-1.53808 0,-0.91553 -0.62256,-1.40381 -0.61035,-0.48828 -2.69775,-0.93994 l -0.78125,-0.18311 q -2.08741,-0.43945 -3.01514,-1.34277 -0.92773,-0.91553 -0.92773,-2.50244 0,-1.92871 1.36718,-2.97852 1.36719,-1.0498 3.88184,-1.0498 1.24512,0 2.34375,0.1831 1.09863,0.18311 2.02637,0.54932 z" />
      </g>
      <path
         inkscape:connector-curvature="0"
         id="path12138"
         d="m 646.72669,779.10556 -11.45421,-16.62134 22.28127,0 -11.50421,16.6939"
         style="fill:none;fill-rule:evenodd;stroke:#000000;stroke-width:0.91902208px;stroke-linecap:butt;stroke-linejoin:miter;stroke-opacity:1" />
      <path
         inkscape:connector-curvature="0"
         id="path12817"
         d="m 204.96046,476.63158 61.87184,0"
         style="fill:none;fill-rule:evenodd;stroke:#000000;stroke-width:1;stroke-linecap:butt;stroke-linejoin:miter;stroke-miterlimit:4;stroke-dasharray:none;stroke-opacity:1" />
      <path
         sodipodi:nodetypes="cc"
         inkscape:connector-curvature="0"
         id="path15232"
         d="m 351.10166,861.36465 -175.16046,0"
         style="fill:none;fill-rule:evenodd;stroke:#000000;stroke-width:2;stroke-linecap:butt;stroke-linejoin:miter;stroke-miterlimit:4;stroke-dasharray:none;stroke-opacity:1;marker-end:url(#marker15234)" />
      <g
         transform="translate(-10,84)"
         id="text16216"
         style="font-style:normal;font-weight:normal;font-size:25px;line-height:125%;font-family:sans-serif;letter-spacing:0px;word-spacing:0px;fill:#000000;fill-opacity:1;stroke:none;stroke-width:1px;stroke-linecap:butt;stroke-linejoin:miter;stroke-opacity:1">
        <path
           inkscape:connector-curvature="0"
           id="path3940"
           style="font-size:20px"
           d="m 203.75618,759.47791 1.97266,0 0,14.58007 -1.97266,0 0,-14.58007 z" />
        <path
           inkscape:connector-curvature="0"
           id="path3942"
           style="font-size:20px"
           d="m 209.65462,759.47791 2.65625,0 6.46484,12.19726 0,-12.19726 1.91406,0 0,14.58007 -2.65625,0 -6.46484,-12.19726 0,12.19726 -1.91406,0 0,-14.58007 z" />
        <path
           inkscape:connector-curvature="0"
           id="path3944"
           style="font-size:20px"
           d="m 222.59407,759.47791 12.33398,0 0,1.66015 -5.17578,0 0,12.91992 -1.98242,0 0,-12.91992 -5.17578,0 0,-1.66015 z" />
      </g>
      <path
         style="fill:none;fill-rule:evenodd;stroke:#000000;stroke-width:0.91402572px;stroke-linecap:butt;stroke-linejoin:miter;stroke-opacity:1"
         d="m 191.7562,840.48842 33,0"
         id="path16220"
         inkscape:connector-curvature="0" />
      <path
         sodipodi:nodetypes="ccccc"
         inkscape:connector-curvature="0"
         id="path4585"
         d="m 572,344.3622 131,0 0,358 -96,0 0,57"
         style="fill:none;fill-rule:evenodd;stroke:#000000;stroke-width:2;stroke-linecap:butt;stroke-linejoin:miter;stroke-miterlimit:4;stroke-dasharray:none;stroke-opacity:1;marker-end:url(#marker6138)" />
      <rect
         y="967.12372"
         x="442.01154"
         height="64.476913"
         width="106.97691"
         id="rect6279"
         style="opacity:1;fill:none;fill-opacity:0.01315786;stroke:#000000;stroke-width:2.02308893;stroke-linecap:square;stroke-miterlimit:4;stroke-dasharray:none;stroke-dashoffset:0;stroke-opacity:1" />
      <rect
         y="967.58771"
         x="565.55536"
         height="63.743336"
         width="129.74333"
         id="rect6281"
         style="opacity:1;fill:none;fill-opacity:0.01315786;stroke:#000000;stroke-width:2;stroke-linecap:square;stroke-miterlimit:4;stroke-dasharray:none;stroke-dashoffset:0;stroke-opacity:1" />
      <g
         transform="translate(-10,84)"
         id="text6283"
         style="font-style:normal;font-weight:normal;font-size:25px;line-height:125%;font-family:sans-serif;letter-spacing:0px;word-spacing:0px;fill:#000000;fill-opacity:1;stroke:none;stroke-width:1px;stroke-linecap:butt;stroke-linejoin:miter;stroke-opacity:1">
        <path
           inkscape:connector-curvature="0"
           id="path3770"
           d="m 584,904.13123 2.46582,0 0,7.70263 8.17871,-7.70263 3.17383,0 -9.04541,8.49609 9.69238,9.729 -3.24707,0 -8.75244,-8.77685 0,8.77685 -2.46582,0 0,-18.22509 z" />
        <path
           inkscape:connector-curvature="0"
           id="path3772"
           d="m 610.78223,914.95886 0,1.09864 -10.32715,0 q 0.14648,2.31933 1.3916,3.54003 1.25732,1.2085 3.49121,1.2085 1.29395,0 2.50244,-0.31738 1.22071,-0.31739 2.41699,-0.95215 l 0,2.12402 q -1.20849,0.5127 -2.47802,0.78125 -1.26953,0.26856 -2.57569,0.26856 -3.27148,0 -5.18799,-1.9043 -1.90429,-1.9043 -1.90429,-5.15137 0,-3.35693 1.80664,-5.32226 1.81885,-1.97754 4.89502,-1.97754 2.75879,0 4.35791,1.78222 1.61133,1.77002 1.61133,4.82178 z m -2.2461,-0.65918 q -0.0244,-1.84326 -1.03759,-2.94189 -1.00098,-1.09863 -2.66114,-1.09863 -1.87988,0 -3.01513,1.06201 -1.12305,1.06201 -1.29395,2.99072 l 8.00781,-0.0122 z" />
        <path
           inkscape:connector-curvature="0"
           id="path3774"
           d="m 620.15723,923.62585 q -0.95215,2.44141 -1.85547,3.18604 -0.90332,0.74463 -2.41699,0.74463 l -1.79444,0 0,-1.87988 1.31836,0 q 0.92774,0 1.44043,-0.43946 0.5127,-0.43945 1.13525,-2.07519 l 0.40284,-1.02539 -5.52979,-13.45215 2.38037,0 4.27246,10.69336 4.27246,-10.69336 2.38038,0 -6.00586,14.9414 z" />
        <path
           inkscape:connector-curvature="0"
           id="path3776"
           d="m 639.07812,915.53259 q 0,-2.47802 -1.02539,-3.88183 -1.01318,-1.41602 -2.79541,-1.41602 -1.78222,0 -2.80761,1.41602 -1.01319,1.40381 -1.01319,3.88183 0,2.47803 1.01319,3.89405 1.02539,1.4038 2.80761,1.4038 1.78223,0 2.79541,-1.4038 1.02539,-1.41602 1.02539,-3.89405 z m -7.6416,-4.77295 q 0.70801,-1.2207 1.78223,-1.80664 1.08643,-0.59814 2.58789,-0.59814 2.49023,0 4.04053,1.97754 1.5625,1.97754 1.5625,5.20019 0,3.22266 -1.5625,5.2002 -1.5503,1.97754 -4.04053,1.97754 -1.50146,0 -2.58789,-0.58594 -1.07422,-0.59814 -1.78223,-1.81885 l 0,2.05078 -2.2583,0 0,-18.99414 2.2583,0 0,7.39746 z" />
        <path
           inkscape:connector-curvature="0"
           id="path3778"
           d="m 650.43066,910.25916 q -1.80664,0 -2.85644,1.41601 -1.04981,1.40381 -1.04981,3.85742 0,2.45362 1.0376,3.86963 1.04981,1.40381 2.86865,1.40381 1.79444,0 2.84424,-1.41602 1.04981,-1.41601 1.04981,-3.85742 0,-2.4292 -1.04981,-3.84521 -1.0498,-1.42822 -2.84424,-1.42822 z m 0,-1.9043 q 2.92969,0 4.60205,1.9043 1.67237,1.90429 1.67237,5.27343 0,3.35694 -1.67237,5.27344 -1.67236,1.9043 -4.60205,1.9043 -2.94189,0 -4.61425,-1.9043 -1.66016,-1.9165 -1.66016,-5.27344 0,-3.36914 1.66016,-5.27343 1.67236,-1.9043 4.61425,-1.9043 z" />
        <path
           inkscape:connector-curvature="0"
           id="path3780"
           d="m 666.62939,915.48376 q -2.72216,0 -3.77197,0.62256 -1.0498,0.62256 -1.0498,2.12403 0,1.19629 0.78125,1.90429 0.79345,0.6958 2.14843,0.6958 1.86768,0 2.99073,-1.31836 1.13525,-1.33056 1.13525,-3.52783 l 0,-0.50049 -2.23389,0 z m 4.47998,-0.92773 0,7.80029 -2.24609,0 0,-2.07519 q -0.76904,1.24512 -1.9165,1.84326 -1.14746,0.58594 -2.80762,0.58594 -2.09961,0 -3.34473,-1.17188 -1.23291,-1.18408 -1.23291,-3.16162 0,-2.30713 1.53809,-3.479 1.55029,-1.17188 4.61426,-1.17188 l 3.14941,0 0,-0.21972 q 0,-1.5503 -1.02539,-2.39258 -1.01318,-0.85449 -2.85644,-0.85449 -1.17188,0 -2.28272,0.28076 -1.11084,0.28076 -2.13623,0.84228 l 0,-2.07519 q 1.23291,-0.47608 2.39258,-0.70801 1.15967,-0.24414 2.2583,-0.24414 2.96631,0 4.43115,1.53808 1.46484,1.53809 1.46484,4.66309 z" />
        <path
           inkscape:connector-curvature="0"
           id="path3782"
           d="m 683.67041,910.78406 q -0.37842,-0.21973 -0.83008,-0.31739 -0.43945,-0.10986 -0.97656,-0.10986 -1.9043,0 -2.92969,1.24512 -1.01318,1.23291 -1.01318,3.55224 l 0,7.20215 -2.2583,0 0,-13.67187 2.2583,0 0,2.12402 q 0.70801,-1.24512 1.84326,-1.84326 1.13525,-0.61035 2.75879,-0.61035 0.23193,0 0.51269,0.0366 0.28077,0.0244 0.62256,0.0855 l 0.0122,2.30713 z" />
        <path
           inkscape:connector-curvature="0"
           id="path3784"
           d="m 694.60791,910.75964 0,-7.39746 2.24609,0 0,18.99414 -2.24609,0 0,-2.05078 q -0.70801,1.22071 -1.79443,1.81885 -1.07422,0.58594 -2.58789,0.58594 -2.47803,0 -4.04053,-1.97754 -1.55029,-1.97754 -1.55029,-5.2002 0,-3.22265 1.55029,-5.20019 1.5625,-1.97754 4.04053,-1.97754 1.51367,0 2.58789,0.59814 1.08642,0.58594 1.79443,1.80664 z m -7.65381,4.77295 q 0,2.47803 1.01319,3.89405 1.02539,1.4038 2.80761,1.4038 1.78223,0 2.80762,-1.4038 1.02539,-1.41602 1.02539,-3.89405 0,-2.47802 -1.02539,-3.88183 -1.02539,-1.41602 -2.80762,-1.41602 -1.78222,0 -2.80761,1.41602 -1.01319,1.40381 -1.01319,3.88183 z" />
      </g>
      <g
         transform="translate(-10,84)"
         id="text6287"
         style="font-style:normal;font-weight:normal;font-size:25px;line-height:125%;font-family:sans-serif;letter-spacing:0px;word-spacing:0px;fill:#000000;fill-opacity:1;stroke:none;stroke-width:1px;stroke-linecap:butt;stroke-linejoin:miter;stroke-opacity:1">
        <path
           inkscape:connector-curvature="0"
           id="path3787"
           d="m 485.87109,927.36218 -6.958,-18.2251 2.57568,0 5.77393,15.34424 5.78613,-15.34424 2.56347,0 -6.9458,18.2251 -2.79541,0 z" />
        <path
           inkscape:connector-curvature="0"
           id="path3789"
           d="m 510.68799,924.76208 0,-4.89501 -4.02832,0 0,-2.02637 6.46972,0 0,7.82471 q -1.42822,1.01318 -3.14941,1.53808 -1.72119,0.5127 -3.67432,0.5127 -4.27246,0 -6.68945,-2.49024 -2.40478,-2.50244 -2.40478,-6.95801 0,-4.46777 2.40478,-6.958 2.41699,-2.50244 6.68945,-2.50244 1.78223,0 3.38135,0.43945 1.61133,0.43945 2.96631,1.29394 l 0,2.62452 q -1.36719,-1.15967 -2.90527,-1.74561 -1.53809,-0.58594 -3.23487,-0.58594 -3.34472,0 -5.02929,1.86768 -1.67237,1.86767 -1.67237,5.5664 0,3.68653 1.67237,5.5542 1.68457,1.86768 5.02929,1.86768 1.30616,0 2.33155,-0.21973 1.02539,-0.23193 1.84326,-0.70801 z" />
        <path
           inkscape:connector-curvature="0"
           id="path3791"
           d="m 523.7373,911.56628 -3.34472,9.06983 6.70166,0 -3.35694,-9.06983 z m -1.3916,-2.4292 2.79541,0 6.9458,18.2251 -2.56347,0 -1.66016,-4.67529 -8.21533,0 -1.66016,4.67529 -2.60009,0 6.958,-18.2251 z" />
      </g>
      <rect
         y="187.4249"
         x="370.42346"
         height="111.72287"
         width="230.51682"
         id="rect7638"
         style="opacity:1;fill:none;fill-opacity:0.01315786;stroke:#000000;stroke-width:2;stroke-linecap:square;stroke-miterlimit:4;stroke-dasharray:none;stroke-dashoffset:0;stroke-opacity:1" />
      <g
         transform="translate(-10,84)"
         id="text7652"
         style="font-style:normal;font-weight:normal;font-size:25px;line-height:125%;font-family:sans-serif;letter-spacing:0px;word-spacing:0px;fill:#000000;fill-opacity:1;stroke:none;stroke-width:1px;stroke-linecap:butt;stroke-linejoin:miter;stroke-opacity:1">
        <path
           inkscape:connector-curvature="0"
           id="path3877"
           d="m 426.12622,150.3813 10.47363,0 0,2.0752 -8.00781,0 0,5.37109 7.22656,0 0,2.0752 -7.22656,0 0,8.70361 -2.46582,0 0,-18.2251 z" />
        <path
           inkscape:connector-curvature="0"
           id="path3879"
           d="m 440.43286,149.61226 2.2461,0 0,18.99414 -2.2461,0 0,-18.99414 z" />
        <path
           inkscape:connector-curvature="0"
           id="path3881"
           d="m 453.57983,161.73384 q -2.72216,0 -3.77197,0.62256 -1.0498,0.62256 -1.0498,2.12402 0,1.19629 0.78125,1.9043 0.79345,0.6958 2.14843,0.6958 1.86768,0 2.99073,-1.31836 1.13525,-1.33057 1.13525,-3.52783 l 0,-0.50049 -2.23389,0 z m 4.47998,-0.92773 0,7.80029 -2.24609,0 0,-2.0752 q -0.76904,1.24512 -1.9165,1.84327 -1.14746,0.58593 -2.80762,0.58593 -2.09961,0 -3.34473,-1.17187 -1.23291,-1.18408 -1.23291,-3.16162 0,-2.30713 1.53809,-3.47901 1.55029,-1.17187 4.61426,-1.17187 l 3.14941,0 0,-0.21973 q 0,-1.55029 -1.02539,-2.39258 -1.01318,-0.85449 -2.85645,-0.85449 -1.17187,0 -2.28271,0.28076 -1.11084,0.28077 -2.13623,0.84229 l 0,-2.0752 q 1.23291,-0.47607 2.39258,-0.708 1.15967,-0.24415 2.2583,-0.24415 2.96631,0 4.43115,1.53809 1.46484,1.53809 1.46484,4.66309 z" />
        <path
           inkscape:connector-curvature="0"
           id="path3883"
           d="m 471.41431,155.33736 0,2.12402 q -0.95215,-0.48828 -1.97754,-0.73242 -1.02539,-0.24414 -2.12403,-0.24414 -1.67236,0 -2.51464,0.51269 -0.83008,0.5127 -0.83008,1.53809 0,0.78125 0.59814,1.23291 0.59815,0.43945 2.40479,0.84228 l 0.76904,0.1709 q 2.39258,0.5127 3.39355,1.45264 1.01319,0.92773 1.01319,2.6001 0,1.90429 -1.51367,3.01513 -1.50147,1.11084 -4.13819,1.11084 -1.09863,0 -2.29492,-0.21972 -1.18408,-0.20752 -2.50244,-0.63477 l 0,-2.31933 q 1.24512,0.64697 2.45361,0.97656 1.2085,0.31738 2.39258,0.31738 1.58692,0 2.44141,-0.53711 0.85449,-0.54932 0.85449,-1.53808 0,-0.91553 -0.62256,-1.40381 -0.61035,-0.48828 -2.69775,-0.93994 l -0.78125,-0.18311 q -2.08741,-0.43945 -3.01514,-1.34277 -0.92773,-0.91553 -0.92773,-2.50244 0,-1.92872 1.36718,-2.97852 1.36719,-1.04981 3.88184,-1.04981 1.24512,0 2.34375,0.18311 1.09863,0.18311 2.02637,0.54932 z" />
        <path
           inkscape:connector-curvature="0"
           id="path3885"
           d="m 487.10034,160.35445 0,8.25195 -2.24609,0 0,-8.17871 q 0,-1.94092 -0.75684,-2.90527 -0.75683,-0.96436 -2.27051,-0.96436 -1.81884,0 -2.86865,1.15967 -1.0498,1.15967 -1.0498,3.16162 l 0,7.72705 -2.2583,0 0,-18.99414 2.2583,0 0,7.44629 q 0.80566,-1.23291 1.89209,-1.84326 1.09863,-0.61036 2.52685,-0.61036 2.35596,0 3.56446,1.46485 1.20849,1.45264 1.20849,4.28467 z" />
        <path
           inkscape:connector-curvature="0"
           id="path3887"
           d="m 502.24927,157.55904 q 0.84228,-1.51368 2.01416,-2.23389 1.17187,-0.72022 2.75879,-0.72022 2.13623,0 3.2959,1.50147 1.15966,1.48926 1.15966,4.24805 l 0,8.25195 -2.2583,0 0,-8.17871 q 0,-1.96533 -0.6958,-2.91748 -0.6958,-0.95215 -2.12402,-0.95215 -1.74561,0 -2.75879,1.15967 -1.01318,1.15967 -1.01318,3.16162 l 0,7.72705 -2.25831,0 0,-8.17871 q 0,-1.97754 -0.6958,-2.91748 -0.6958,-0.95215 -2.14843,-0.95215 -1.72119,0 -2.73438,1.17187 -1.01318,1.15967 -1.01318,3.14942 l 0,7.72705 -2.2583,0 0,-13.67188 2.2583,0 0,2.12403 q 0.76904,-1.25733 1.84326,-1.85547 1.07422,-0.59815 2.55127,-0.59815 1.48926,0 2.52685,0.75684 1.04981,0.75684 1.5503,2.19727 z" />
        <path
           inkscape:connector-curvature="0"
           id="path3889"
           d="m 521.26782,156.50923 q -1.80664,0 -2.85644,1.41602 -1.04981,1.40381 -1.04981,3.85742 0,2.45361 1.0376,3.86963 1.0498,1.40381 2.86865,1.40381 1.79444,0 2.84424,-1.41602 1.04981,-1.41601 1.04981,-3.85742 0,-2.4292 -1.04981,-3.84522 -1.0498,-1.42822 -2.84424,-1.42822 z m 0,-1.9043 q 2.92969,0 4.60205,1.9043 1.67237,1.9043 1.67237,5.27344 0,3.35693 -1.67237,5.27344 -1.67236,1.90429 -4.60205,1.90429 -2.94189,0 -4.61426,-1.90429 -1.66015,-1.91651 -1.66015,-5.27344 0,-3.36914 1.66015,-5.27344 1.67237,-1.9043 4.61426,-1.9043 z" />
        <path
           inkscape:connector-curvature="0"
           id="path3891"
           d="m 540.24976,157.00972 0,-7.39746 2.24609,0 0,18.99414 -2.24609,0 0,-2.05078 q -0.70801,1.2207 -1.79444,1.81885 -1.07422,0.58593 -2.58789,0.58593 -2.47803,0 -4.04053,-1.97754 -1.55029,-1.97753 -1.55029,-5.20019 0,-3.22266 1.55029,-5.2002 1.5625,-1.97754 4.04053,-1.97754 1.51367,0 2.58789,0.59815 1.08643,0.58594 1.79444,1.80664 z m -7.65381,4.77295 q 0,2.47803 1.01318,3.89404 1.02539,1.40381 2.80762,1.40381 1.78222,0 2.80762,-1.40381 1.02539,-1.41601 1.02539,-3.89404 0,-2.47803 -1.02539,-3.88184 -1.0254,-1.41601 -2.80762,-1.41601 -1.78223,0 -2.80762,1.41601 -1.01318,1.40381 -1.01318,3.88184 z" />
        <path
           inkscape:connector-curvature="0"
           id="path3893"
           d="m 546.89038,163.21089 0,-8.27637 2.24609,0 0,8.19092 q 0,1.94092 0.75684,2.91748 0.75684,0.96436 2.27051,0.96436 1.81885,0 2.86865,-1.15967 1.06201,-1.15967 1.06201,-3.16162 l 0,-7.75147 2.2461,0 0,13.67188 -2.2461,0 0,-2.09961 q -0.81787,1.24512 -1.90429,1.85547 -1.07422,0.59814 -2.50245,0.59814 -2.35595,0 -3.57666,-1.46484 -1.2207,-1.46484 -1.2207,-4.28467 z m 5.65186,-8.60596 0,0 z" />
        <path
           inkscape:connector-curvature="0"
           id="path3895"
           d="m 562.99146,149.61226 2.24609,0 0,18.99414 -2.24609,0 0,-18.99414 z" />
      </g>
      <path
         inkscape:connector-curvature="0"
         id="path7660"
         d="m 419,300.3622 0,177"
         style="fill:none;fill-rule:evenodd;stroke:#000000;stroke-width:2;stroke-linecap:butt;stroke-linejoin:miter;stroke-miterlimit:4;stroke-dasharray:none;stroke-opacity:1;marker-end:url(#marker5050)" />
      <path
         sodipodi:nodetypes="cc"
         inkscape:connector-curvature="0"
         id="path7664"
         d="m 419.21905,388.3622 -244.20135,0"
         style="fill:none;fill-rule:evenodd;stroke:#000000;stroke-width:2.00485778;stroke-linecap:butt;stroke-linejoin:miter;stroke-miterlimit:4;stroke-dasharray:none;stroke-opacity:1;marker-start:url(#marker10700);marker-end:url(#marker7696)" />
    </g>
  </g>
</svg>
