<?xml version="1.0" encoding="UTF-8" standalone="no"?>
<!-- Created with Inkscape (http://www.inkscape.org/) -->

<svg
   xmlns:dc="http://purl.org/dc/elements/1.1/"
   xmlns:cc="http://creativecommons.org/ns#"
   xmlns:rdf="http://www.w3.org/1999/02/22-rdf-syntax-ns#"
   xmlns:svg="http://www.w3.org/2000/svg"
   xmlns="http://www.w3.org/2000/svg"
   xmlns:sodipodi="http://sodipodi.sourceforge.net/DTD/sodipodi-0.dtd"
   xmlns:inkscape="http://www.inkscape.org/namespaces/inkscape"
   width="93.255371mm"
   height="50.035057mm"
   viewBox="0 0 330.43242 177.28957"
   id="svg2"
   version="1.1"
   inkscape:version="0.92.2 2405546, 2018-03-11"
   sodipodi:docname="port.svg">
  <defs
     id="defs4">
    <marker
       inkscape:stockid="Arrow2Send"
       orient="auto"
       refY="0"
       refX="0"
       id="marker8806"
       style="overflow:visible"
       inkscape:isstock="true">
      <path
         id="path8808"
         style="fill:#000000;fill-opacity:1;fill-rule:evenodd;stroke:#000000;stroke-width:0.625;stroke-linejoin:round;stroke-opacity:1"
         d="M 8.7185878,4.0337352 -2.2072895,0.01601326 8.7185884,-4.0017078 c -1.7454984,2.3720609 -1.7354408,5.6174519 -6e-7,8.035443 z"
         transform="matrix(-0.3,0,0,-0.3,0.69,0)"
         inkscape:connector-curvature="0" />
    </marker>
    <marker
       inkscape:isstock="true"
       style="overflow:visible"
       id="marker8614"
       refX="0"
       refY="0"
       orient="auto"
       inkscape:stockid="Arrow2Send"
       inkscape:collect="always">
      <path
         inkscape:connector-curvature="0"
         transform="matrix(-0.3,0,0,-0.3,0.69,0)"
         d="M 8.7185878,4.0337352 -2.2072895,0.01601326 8.7185884,-4.0017078 c -1.7454984,2.3720609 -1.7354408,5.6174519 -6e-7,8.035443 z"
         style="fill:#000000;fill-opacity:1;fill-rule:evenodd;stroke:#000000;stroke-width:0.625;stroke-linejoin:round;stroke-opacity:1"
         id="path8616" />
    </marker>
    <marker
       inkscape:isstock="true"
       style="overflow:visible"
       id="marker7430"
       refX="0"
       refY="0"
       orient="auto"
       inkscape:stockid="Arrow2Send">
      <path
         transform="matrix(-0.3,0,0,-0.3,0.69,0)"
         d="M 8.7185878,4.0337352 -2.2072895,0.01601326 8.7185884,-4.0017078 c -1.7454984,2.3720609 -1.7354408,5.6174519 -6e-7,8.035443 z"
         style="fill:#000000;fill-opacity:1;fill-rule:evenodd;stroke:#000000;stroke-width:0.625;stroke-linejoin:round;stroke-opacity:1"
         id="path7432"
         inkscape:connector-curvature="0" />
    </marker>
    <marker
       inkscape:stockid="Arrow2Send"
       orient="auto"
       refY="0"
       refX="0"
       id="Arrow2Send"
       style="overflow:visible"
       inkscape:isstock="true"
       inkscape:collect="always">
      <path
         id="path7077"
         style="fill:#000000;fill-opacity:1;fill-rule:evenodd;stroke:#000000;stroke-width:0.625;stroke-linejoin:round;stroke-opacity:1"
         d="M 8.7185878,4.0337352 -2.2072895,0.01601326 8.7185884,-4.0017078 c -1.7454984,2.3720609 -1.7354408,5.6174519 -6e-7,8.035443 z"
         transform="matrix(-0.3,0,0,-0.3,0.69,0)"
         inkscape:connector-curvature="0" />
    </marker>
    <marker
       inkscape:stockid="Arrow2Mend"
       orient="auto"
       refY="0"
       refX="0"
       id="Arrow2Mend"
       style="overflow:visible"
       inkscape:isstock="true">
      <path
         id="path7071"
         style="fill:#000000;fill-opacity:1;fill-rule:evenodd;stroke:#000000;stroke-width:0.625;stroke-linejoin:round;stroke-opacity:1"
         d="M 8.7185878,4.0337352 -2.2072895,0.01601326 8.7185884,-4.0017078 c -1.7454984,2.3720609 -1.7354408,5.6174519 -6e-7,8.035443 z"
         transform="scale(-0.6)"
         inkscape:connector-curvature="0" />
    </marker>
    <marker
       inkscape:stockid="Arrow1Send"
       orient="auto"
       refY="0"
       refX="0"
       id="Arrow1Send"
       style="overflow:visible"
       inkscape:isstock="true">
      <path
         id="path7059"
         d="M 0,0 5,-5 -12.5,0 5,5 Z"
         style="fill:#000000;fill-opacity:1;fill-rule:evenodd;stroke:#000000;stroke-width:1.00000003pt;stroke-opacity:1"
         transform="matrix(-0.2,0,0,-0.2,-1.2,0)"
         inkscape:connector-curvature="0" />
    </marker>
    <marker
       inkscape:stockid="Arrow1Mend"
       orient="auto"
       refY="0"
       refX="0"
       id="Arrow1Mend"
       style="overflow:visible"
       inkscape:isstock="true">
      <path
         id="path7053"
         d="M 0,0 5,-5 -12.5,0 5,5 Z"
         style="fill:#000000;fill-opacity:1;fill-rule:evenodd;stroke:#000000;stroke-width:1.00000003pt;stroke-opacity:1"
         transform="matrix(-0.4,0,0,-0.4,-4,0)"
         inkscape:connector-curvature="0" />
    </marker>
  </defs>
  <sodipodi:namedview
     id="base"
     pagecolor="#ffffff"
     bordercolor="#666666"
     borderopacity="1.0"
     inkscape:pageopacity="0.0"
     inkscape:pageshadow="2"
     inkscape:zoom="4.0558643"
     inkscape:cx="176.23064"
     inkscape:cy="94.554446"
     inkscape:document-units="px"
     inkscape:current-layer="layer1"
     showgrid="false"
     showguides="true"
     inkscape:guide-bbox="true"
     inkscape:snap-bbox="false"
     inkscape:bbox-nodes="true"
     inkscape:bbox-paths="false"
     inkscape:snap-nodes="true"
     inkscape:window-width="1900"
     inkscape:window-height="1028"
     inkscape:window-x="8"
     inkscape:window-y="40"
     inkscape:window-maximized="0"
     fit-margin-top="0"
     fit-margin-left="0"
     fit-margin-right="0"
     fit-margin-bottom="0" />
  <metadata
     id="metadata7">
    <rdf:RDF>
      <cc:Work
         rdf:about="">
        <dc:format>image/svg+xml</dc:format>
        <dc:type
           rdf:resource="http://purl.org/dc/dcmitype/StillImage" />
        <dc:title></dc:title>
      </cc:Work>
    </rdf:RDF>
  </metadata>
  <g
     inkscape:label="Layer 1"
     inkscape:groupmode="layer"
     id="layer1"
     transform="translate(-294.51276,-481.2496)">
    <path
       style="display:inline;opacity:1;fill:#d3d7cf;fill-opacity:1;stroke:#000000;stroke-width:1.77165341;stroke-linecap:square;stroke-linejoin:miter;stroke-miterlimit:4;stroke-dasharray:none;stroke-dashoffset:0;stroke-opacity:1"
       d="m 547.02235,535.95668 v 5.31554 h -75.71234 v 14.17237 h 75.71234 v 5.31555 l 12.26626,-12.40174 z"
       id="path6207"
       inkscape:connector-curvature="0"
       sodipodi:nodetypes="cccccccc" />
    <path
       sodipodi:nodetypes="cccccccc"
       inkscape:connector-curvature="0"
       id="path6219"
       d="M 328.27484,600.76014 V 595.4446 H 558.49001 V 581.27223 H 328.27484 v -5.31555 l -12.26626,12.40174 z"
       style="display:inline;opacity:1;fill:#d3d7cf;fill-opacity:1;stroke:#000000;stroke-width:1.77165341;stroke-linecap:square;stroke-linejoin:miter;stroke-miterlimit:4;stroke-dasharray:none;stroke-dashoffset:0;stroke-opacity:1" />
    <path
       style="display:inline;opacity:1;fill:#d3d7cf;fill-opacity:1;stroke:#000000;stroke-width:1.77165341;stroke-linecap:square;stroke-linejoin:miter;stroke-miterlimit:4;stroke-dasharray:none;stroke-dashoffset:0;stroke-opacity:1"
       d="m 309.06836,207.64844 -12.40039,12.26758 h 5.31445 v 30.58789 30.27539 19.6289 h -5.31445 l 12.40039,12.26563 12.40234,-12.26563 h -5.3164 v -19.6289 -30.27539 -3.32618 h 75.5664 v 5.31446 l 12.26563,-12.40235 -12.26563,-12.40039 v 5.31446 h -75.5664 v -13.08789 h 5.3164 z"
       transform="translate(0,308.26772)"
       id="path6149"
       inkscape:connector-curvature="0" />
    <path
       style="opacity:1;fill:#ffffff;fill-opacity:1;stroke:#000000;stroke-width:1.77165353;stroke-linecap:square;stroke-linejoin:miter;stroke-miterlimit:4;stroke-dasharray:none;stroke-dashoffset:0;stroke-opacity:1"
       d="m 403.98718,532.41353 h 67.32283 v 31.88976 h -67.32283 z"
       id="rect59"
       inkscape:connector-curvature="0" />
    <path
       style="opacity:1;fill:#ffffff;fill-opacity:1;stroke:#000000;stroke-width:1.77165353;stroke-linecap:square;stroke-linejoin:miter;stroke-miterlimit:4;stroke-dasharray:none;stroke-dashoffset:0;stroke-opacity:1"
       inkscape:transform-center-x="-0.74999971"
       d="m 419.93206,548.35843 -7.97244,6.91588 -7.97244,6.91585 v -13.83173 -13.83175 l 7.97244,6.91588 z"
       id="path1618"
       inkscape:connector-curvature="0" />
    <g
       aria-label="data"
       style="font-style:normal;font-variant:normal;font-weight:normal;font-stretch:normal;line-height:0%;font-family:monospace;-inkscape-font-specification:monospace;letter-spacing:0px;word-spacing:0px;writing-mode:tb-rl;text-orientation:upright;fill:#000000;fill-opacity:1;stroke:none;stroke-width:1px;stroke-linecap:butt;stroke-linejoin:miter;stroke-opacity:1"
       id="text6232"
       transform="translate(0,5.182406)">
      <path
         d="m 310.76917,543.1933 v -3.53394 h 1.12304 v 9.49707 h -1.12304 v -0.86059 q -0.28077,0.50659 -0.75074,0.77514 -0.46386,0.26246 -1.07422,0.26246 -1.23901,0 -1.95312,-0.95826 -0.70801,-0.96435 -0.70801,-2.65503 0,-1.66626 0.71411,-2.6123 0.71411,-0.95215 1.94702,-0.95215 0.61646,0 1.08643,0.26856 0.46997,0.26245 0.73853,0.76904 z m -3.30201,2.55127 q 0,1.30615 0.41504,1.97143 0.41504,0.66529 1.22681,0.66529 0.81177,0 1.23291,-0.67139 0.42725,-0.67139 0.42725,-1.96533 0,-1.30005 -0.42725,-1.96533 -0.42114,-0.67139 -1.23291,-0.67139 -0.81177,0 -1.22681,0.66528 -0.41504,0.66529 -0.41504,1.97144 z"
         style="font-style:normal;font-variant:normal;font-weight:normal;font-stretch:normal;font-size:12.5px;line-height:1.25;font-family:monospace;-inkscape-font-specification:monospace;writing-mode:tb-rl;text-orientation:upright"
         id="path692"
         inkscape:connector-curvature="0" />
      <path
         d="m 309.81702,558.22015 h -0.37232 q -0.98266,0 -1.48315,0.3479 -0.49439,0.3418 -0.49439,1.02539 0,0.61646 0.37232,0.95826 0.37231,0.34179 1.03149,0.34179 0.92774,0 1.45874,-0.64087 0.53101,-0.64697 0.53711,-1.78222 v -0.25025 z m 2.17895,-0.46386 v 3.90014 h -1.12915 v -1.01318 q -0.36011,0.61035 -0.90942,0.90332 -0.54322,0.28687 -1.32447,0.28687 -1.0437,0 -1.66626,-0.58594 -0.62255,-0.59204 -0.62255,-1.58081 0,-1.14136 0.76294,-1.7334 0.76904,-0.59204 2.25219,-0.59204 h 1.50757 v -0.177 q -0.006,-0.81788 -0.41504,-1.18409 -0.40893,-0.37231 -1.30615,-0.37231 -0.57373,0 -1.15967,0.16479 -0.58594,0.1648 -1.14136,0.48218 v -1.12305 q 0.62256,-0.23803 1.19019,-0.354 0.57373,-0.12207 1.11084,-0.12207 0.84839,0 1.44653,0.25024 0.60425,0.25025 0.97657,0.75074 0.23193,0.30517 0.32959,0.75683 0.0976,0.44556 0.0976,1.34278 z"
         style="font-style:normal;font-variant:normal;font-weight:normal;font-stretch:normal;font-size:12.5px;line-height:1.25;font-family:monospace;-inkscape-font-specification:monospace;writing-mode:tb-rl;text-orientation:upright"
         id="path694"
         inkscape:connector-curvature="0" />
      <path
         d="m 309.27991,565.37958 v 1.94092 h 2.55127 v 0.8728 h -2.55127 v 3.71094 q 0,0.75683 0.28686,1.0559 0.28687,0.29908 1.00098,0.29908 h 1.26343 v 0.89721 h -1.37329 q -1.26343,0 -1.78223,-0.50659 -0.5188,-0.50659 -0.5188,-1.7456 v -3.71094 h -1.82495 v -0.8728 h 1.82495 v -1.94092 z"
         style="font-style:normal;font-variant:normal;font-weight:normal;font-stretch:normal;font-size:12.5px;line-height:1.25;font-family:monospace;-inkscape-font-specification:monospace;writing-mode:tb-rl;text-orientation:upright"
         id="path696"
         inkscape:connector-curvature="0" />
      <path
         d="m 309.81702,583.22015 h -0.37232 q -0.98266,0 -1.48315,0.3479 -0.49439,0.3418 -0.49439,1.02539 0,0.61646 0.37232,0.95826 0.37231,0.34179 1.03149,0.34179 0.92774,0 1.45874,-0.64087 0.53101,-0.64697 0.53711,-1.78222 v -0.25025 z m 2.17895,-0.46386 v 3.90014 h -1.12915 v -1.01318 q -0.36011,0.61035 -0.90942,0.90332 -0.54322,0.28687 -1.32447,0.28687 -1.0437,0 -1.66626,-0.58594 -0.62255,-0.59204 -0.62255,-1.58081 0,-1.14136 0.76294,-1.7334 0.76904,-0.59204 2.25219,-0.59204 h 1.50757 v -0.177 q -0.006,-0.81788 -0.41504,-1.18409 -0.40893,-0.37231 -1.30615,-0.37231 -0.57373,0 -1.15967,0.16479 -0.58594,0.1648 -1.14136,0.48218 v -1.12305 q 0.62256,-0.23803 1.19019,-0.354 0.57373,-0.12207 1.11084,-0.12207 0.84839,0 1.44653,0.25024 0.60425,0.25025 0.97657,0.75074 0.23193,0.30517 0.32959,0.75683 0.0976,0.44556 0.0976,1.34278 z"
         style="font-style:normal;font-variant:normal;font-weight:normal;font-stretch:normal;font-size:12.5px;line-height:1.25;font-family:monospace;-inkscape-font-specification:monospace;writing-mode:tb-rl;text-orientation:upright"
         id="path698"
         inkscape:connector-curvature="0" />
    </g>
    <path
       style="fill:none;fill-rule:evenodd;stroke:#000000;stroke-width:1.77199996;stroke-linecap:butt;stroke-linejoin:miter;stroke-miterlimit:4;stroke-dasharray:none;stroke-opacity:1;marker-end:url(#Arrow2Send)"
       d="m 437.64008,491.59499 v 38.25637"
       id="path6238"
       inkscape:connector-curvature="0"
       sodipodi:nodetypes="cc" />
    <path
       inkscape:connector-curvature="0"
       id="path7428"
       d="M 437.21419,645.6089 V 599.83097"
       style="fill:none;fill-rule:evenodd;stroke:#000000;stroke-width:1.77199996;stroke-linecap:butt;stroke-linejoin:miter;stroke-miterlimit:4;stroke-dasharray:none;stroke-opacity:1;marker-end:url(#marker7430)"
       sodipodi:nodetypes="cc" />
    <path
       sodipodi:type="star"
       style="fill:#ffffff;fill-opacity:1;stroke:#000000;stroke-width:1.77165353;stroke-miterlimit:4;stroke-dasharray:none;stroke-dashoffset:0;stroke-opacity:1"
       id="path7483"
       sodipodi:sides="3"
       sodipodi:cx="-442.76291"
       sodipodi:cy="588.3584"
       sodipodi:r1="20.457293"
       sodipodi:r2="10.228647"
       sodipodi:arg1="0"
       sodipodi:arg2="1.0471976"
       inkscape:flatsided="false"
       inkscape:rounded="0"
       inkscape:randomized="0"
       d="m -422.30562,588.3584 -15.34297,8.85827 -15.34297,8.85826 0,-17.71653 0,-17.71654 15.34298,8.85827 z"
       inkscape:transform-center-x="5.1143215"
       inkscape:transform-center-y="2.5619835e-05"
       transform="scale(-1,1)" />
    <text
       xml:space="preserve"
       style="font-style:normal;font-weight:normal;line-height:0%;font-family:sans-serif;letter-spacing:0px;word-spacing:0px;writing-mode:lr-tb;fill:#000000;fill-opacity:1;stroke:none;stroke-width:1px;stroke-linecap:butt;stroke-linejoin:miter;stroke-opacity:1"
       x="429.92114"
       y="488.25034"
       id="text7709"><tspan
         sodipodi:role="line"
         id="tspan7711"
         x="429.92114"
         y="488.25034"
         style="font-style:normal;font-variant:normal;font-weight:normal;font-stretch:normal;font-size:12.5px;line-height:1.25;font-family:monospace;-inkscape-font-specification:monospace">wr</tspan></text>
    <text
       id="text7743"
       y="658.36218"
       x="429.16125"
       style="font-style:normal;font-weight:normal;line-height:0%;font-family:sans-serif;letter-spacing:0px;word-spacing:0px;writing-mode:lr-tb;fill:#000000;fill-opacity:1;stroke:none;stroke-width:1px;stroke-linecap:butt;stroke-linejoin:miter;stroke-opacity:1"
       xml:space="preserve"><tspan
         y="658.36218"
         x="429.16125"
         id="tspan7745"
         sodipodi:role="line"
         style="font-style:normal;font-variant:normal;font-weight:normal;font-stretch:normal;font-size:12.5px;line-height:1.25;font-family:monospace;-inkscape-font-specification:monospace">rd</tspan></text>
    <text
       xml:space="preserve"
       style="font-style:normal;font-weight:normal;line-height:0%;font-family:sans-serif;letter-spacing:0px;word-spacing:0px;writing-mode:tb-rl;fill:#000000;fill-opacity:1;stroke:none;stroke-width:1px;stroke-linecap:butt;stroke-linejoin:miter;stroke-opacity:1"
       x="569.5"
       y="560.61218"
       id="text7906"><tspan
         sodipodi:role="line"
         id="tspan7908"
         x="560.61218"
         y="569.5"
         style="font-size:40px;line-height:1.25"> </tspan></text>
    <text
       id="text7910"
       y="551.27283"
       x="566.00964"
       style="font-style:normal;font-weight:normal;line-height:0%;font-family:sans-serif;letter-spacing:0px;word-spacing:0px;writing-mode:lr-tb;fill:#000000;fill-opacity:1;stroke:none;stroke-width:1px;stroke-linecap:butt;stroke-linejoin:miter;stroke-opacity:1"
       xml:space="preserve"><tspan
         y="551.27283"
         x="566.00964"
         id="tspan7912"
         sodipodi:role="line"
         style="font-style:normal;font-variant:normal;font-weight:normal;font-stretch:normal;font-size:12.5px;line-height:1.25;font-family:monospace;-inkscape-font-specification:monospace">port_out</tspan></text>
    <text
       xml:space="preserve"
       style="font-style:normal;font-weight:normal;line-height:0%;font-family:sans-serif;letter-spacing:0px;word-spacing:0px;writing-mode:lr-tb;fill:#000000;fill-opacity:1;stroke:none;stroke-width:1px;stroke-linecap:butt;stroke-linejoin:miter;stroke-opacity:1"
       x="566.00964"
       y="591.63293"
       id="text7914"><tspan
         sodipodi:role="line"
         id="tspan7916"
         x="566.00964"
         y="591.63293"
         style="font-style:normal;font-variant:normal;font-weight:normal;font-stretch:normal;font-size:12.5px;line-height:1.25;font-family:monospace;-inkscape-font-specification:monospace">port_in</tspan></text>
    <text
       xml:space="preserve"
       style="font-style:normal;font-variant:normal;font-weight:normal;font-stretch:normal;line-height:0%;font-family:monospace;-inkscape-font-specification:monospace;letter-spacing:0px;word-spacing:0px;writing-mode:lr-tb;fill:#000000;fill-opacity:1;stroke:none;stroke-width:1px;stroke-linecap:butt;stroke-linejoin:miter;stroke-opacity:1"
       x="423.20151"
       y="553.01843"
       id="text8594"><tspan
         sodipodi:role="line"
         id="tspan8596"
         x="423.20151"
         y="553.01843"
         style="font-size:12.50000191px;line-height:1.25">buffer</tspan></text>
    <path
       sodipodi:nodetypes="cc"
       inkscape:connector-curvature="0"
       id="path8612"
       d="M 437.51967,515.33694 H 559.28861"
       style="fill:none;fill-rule:evenodd;stroke:#000000;stroke-width:1.77199996;stroke-linecap:butt;stroke-linejoin:miter;stroke-miterlimit:4;stroke-dasharray:none;stroke-opacity:1;marker-end:url(#marker8614)" />
    <path
       style="fill:none;fill-rule:evenodd;stroke:#000000;stroke-width:1.77199996;stroke-linecap:butt;stroke-linejoin:miter;stroke-miterlimit:4;stroke-dasharray:none;stroke-opacity:1;marker-end:url(#marker8806)"
       d="M 437.51967,621.39692 H 559.28861"
       id="path8804"
       inkscape:connector-curvature="0"
       sodipodi:nodetypes="cc" />
    <text
       xml:space="preserve"
       style="font-style:normal;font-weight:normal;line-height:0%;font-family:sans-serif;letter-spacing:0px;word-spacing:0px;writing-mode:lr-tb;fill:#000000;fill-opacity:1;stroke:none;stroke-width:1px;stroke-linecap:butt;stroke-linejoin:miter;stroke-opacity:1"
       x="566.00964"
       y="518.24286"
       id="text8948"><tspan
         style="font-style:normal;font-variant:normal;font-weight:normal;font-stretch:normal;font-size:12.5px;line-height:1.25;font-family:monospace;-inkscape-font-specification:monospace"
         sodipodi:role="line"
         id="tspan8950"
         x="566.00964"
         y="518.24286">port_rd</tspan></text>
    <text
       id="text8976"
       y="624.66296"
       x="566.00964"
       style="font-style:normal;font-weight:normal;line-height:0%;font-family:sans-serif;letter-spacing:0px;word-spacing:0px;writing-mode:lr-tb;fill:#000000;fill-opacity:1;stroke:none;stroke-width:1px;stroke-linecap:butt;stroke-linejoin:miter;stroke-opacity:1"
       xml:space="preserve"><tspan
         style="font-style:normal;font-variant:normal;font-weight:normal;font-stretch:normal;font-size:12.5px;line-height:1.25;font-family:monospace;-inkscape-font-specification:monospace"
         y="624.66296"
         x="566.00964"
         id="tspan8978"
         sodipodi:role="line">port_wr</tspan></text>
    <path
       style="fill:none;fill-opacity:1;stroke:#888a85;stroke-width:2.65748024;stroke-miterlimit:4;stroke-dasharray:21.25983963, 21.25983963;stroke-dashoffset:0;stroke-opacity:1"
       d="M 347.02802,500.37168 H 528.26918 V 636.34519 H 347.02802 Z"
       id="rect4909"
       inkscape:connector-curvature="0" />
  </g>
</svg>
